<svg xmlns="http://www.w3.org/2000/svg" width="20" height="18" viewBox="0 0 20 18" fill="none">
  <path d="M1.95747 0.787957C1.85007 0.3584 1.41478 0.0972399 0.985223 0.20464C0.555666 0.312039 0.294505 0.747329 0.401905 1.17689L1.95747 0.787957ZM5.00042 12.8362L5.48233 12.1955L5.00042 12.8362ZM2.80021 7.59805L3.57985 7.41119L2.80021 7.59805ZM4.85618 12.7225L5.36694 12.1045L4.85618 12.7225ZM18.0313 7.99153L18.8109 8.17838L18.0313 7.99153ZM16.324 12.4932L15.7624 11.9211L16.324 12.4932ZM15.6431 13.0302L16.0686 13.7097L15.6431 13.0302ZM17.9695 4.7954L18.5197 4.21233L17.9695 4.7954ZM18.2595 5.16313L18.9547 4.76392L18.2595 5.16313ZM11.6022 7.39621C11.1594 7.39621 10.8005 7.75516 10.8005 8.19794C10.8005 8.64072 11.1594 8.99966 11.6022 8.99966L11.6022 7.39621ZM14.0074 9.80139C13.5646 9.80139 13.2056 10.1603 13.2056 10.6031C13.2056 11.0459 13.5646 11.4048 14.0074 11.4048V9.80139ZM2.02369 5.15983H15.1658V3.55638H2.02369V5.15983ZM10.8675 12.8395H10.4629V14.4429H10.8675V12.8395ZM3.57985 7.41119L2.80333 4.17125L1.24405 4.54496L2.02056 7.7849L3.57985 7.41119ZM2.80147 4.16364L1.95747 0.787957L0.401905 1.17689L1.24591 4.55257L2.80147 4.16364ZM10.4629 12.8395C8.9799 12.8395 7.9364 12.8382 7.12753 12.7442C6.33895 12.6526 5.86145 12.4806 5.48233 12.1955L4.51851 13.4769C5.20968 13.9968 5.99937 14.2274 6.94242 14.337C7.86519 14.4442 9.01777 14.4429 10.4629 14.4429V12.8395ZM2.02056 7.7849C2.35737 9.19023 2.62478 10.3114 2.94414 11.1837C3.27052 12.0753 3.67879 12.7895 4.34542 13.3404L5.36694 12.1045C5.00127 11.8023 4.72278 11.378 4.44986 10.6325C4.16992 9.86781 3.92549 8.85334 3.57985 7.41119L2.02056 7.7849ZM5.48233 12.1955C5.44317 12.166 5.4047 12.1357 5.36694 12.1045L4.34542 13.3404C4.40207 13.3872 4.45978 13.4328 4.51851 13.4769L5.48233 12.1955ZM10.8675 14.4429C12.1178 14.4429 13.115 14.4439 13.9199 14.3625C14.741 14.2795 15.4368 14.1053 16.0686 13.7097L15.2176 12.3507C14.8735 12.5662 14.4481 12.6975 13.7586 12.7672C13.053 12.8385 12.1504 12.8395 10.8675 12.8395V14.4429ZM15.7624 11.9211C15.5969 12.0835 15.4142 12.2276 15.2176 12.3507L16.0686 13.7097C16.3634 13.5251 16.6374 13.309 16.8857 13.0653L15.7624 11.9211ZM15.1658 5.15983C15.9667 5.15983 16.4938 5.16124 16.8818 5.20859C17.2566 5.25432 17.3679 5.33004 17.4192 5.37848L18.5197 4.21233C18.1077 3.82346 17.5972 3.68054 17.076 3.61694C16.5681 3.55497 15.9251 3.55638 15.1658 3.55638V5.15983ZM18.8109 8.17838C18.9879 7.44 19.1391 6.815 19.1972 6.30662C19.2569 5.78499 19.2369 5.25526 18.9547 4.76392L17.5642 5.56234C17.5993 5.62354 17.647 5.74939 17.6042 6.12452C17.5598 6.51289 17.4383 7.02581 17.2516 7.80467L18.8109 8.17838ZM17.4192 5.37848C17.4763 5.43234 17.5251 5.49429 17.5642 5.56234L18.9547 4.76392C18.8375 4.55976 18.6909 4.37391 18.5197 4.21233L17.4192 5.37848ZM17.2143 9.80139H14.0074V11.4048H17.2143V9.80139ZM17.9818 7.39622L11.6022 7.39621L11.6022 8.99966H17.9818V7.39622ZM17.2516 7.80467C17.2349 7.87447 17.2184 7.94319 17.2022 8.01093L18.7614 8.38495C18.7777 8.31703 18.7942 8.24816 18.8109 8.17838L17.2516 7.80467ZM17.2022 8.01093C16.9631 9.00755 16.7792 9.7595 16.5876 10.3591L18.115 10.8471C18.3281 10.18 18.526 9.36645 18.7614 8.38495L17.2022 8.01093ZM16.5876 10.3591C16.3307 11.1632 16.0863 11.6031 15.7624 11.9211L16.8857 13.0653C17.4797 12.4822 17.8247 11.7557 18.115 10.8471L16.5876 10.3591ZM17.2143 11.4048H17.3513V9.80139H17.2143V11.4048Z" fill="white"/>
  <path d="M8.77573 16.174C8.77573 16.6401 8.3979 17.0179 7.93181 17.0179C7.46573 17.0179 7.08789 16.6401 7.08789 16.174C7.08789 15.7079 7.46573 15.3301 7.93181 15.3301C8.3979 15.3301 8.77573 15.7079 8.77573 16.174Z" fill="white"/>
  <path d="M13.8393 16.174C13.8393 16.6401 13.4614 17.0179 12.9953 17.0179C12.5292 17.0179 12.1514 16.6401 12.1514 16.174C12.1514 15.7079 12.5292 15.3301 12.9953 15.3301C13.4614 15.3301 13.8393 15.7079 13.8393 16.174Z" fill="white"/>
</svg>