<svg width="32" height="36" viewBox="0 0 32 36" fill="none" xmlns="http://www.w3.org/2000/svg">
<path d="M10.9961 1.3822C12.4033 1.33398 14.0479 1.33398 15.9961 1.33398C22.2456 1.33398 25.3704 1.33398 27.561 2.92551C28.2684 3.43951 28.8906 4.06165 29.4046 4.76911C30.9961 6.95965 30.9961 10.0844 30.9961 16.334V19.6673C30.9961 25.9169 30.9961 29.0416 29.4046 31.2322C28.8906 31.9397 28.2684 32.5618 27.561 33.0758C25.3704 34.6673 22.2456 34.6673 15.9961 34.6673C9.74654 34.6673 6.62176 34.6673 4.43122 33.0758C3.72376 32.5618 3.10161 31.9397 2.58762 31.2322C0.996092 29.0416 0.996094 25.9169 0.996094 19.6673V16.334C0.996094 14.3858 0.996094 12.7412 1.04431 11.334M10.9961 1.3822C7.88912 1.48865 5.93889 1.83012 4.43122 2.92551C3.72376 3.43951 3.10161 4.06165 2.58762 4.76911C1.49223 6.27678 1.15076 8.22701 1.04431 11.334M10.9961 1.3822C10.9961 2.89847 10.995 3.66326 10.8935 4.30427C10.3287 7.87004 7.53215 10.6666 3.96638 11.2314C3.32537 11.3329 2.56058 11.334 1.04431 11.334M12.4606 16.5362L19.5316 23.6073M12.4606 23.6073L19.5316 16.5362" stroke="#056BE9" stroke-width="1.5"/>
</svg>
