<svg xmlns="http://www.w3.org/2000/svg" width="18" height="18" viewBox="0 0 18 18" fill="none">
  <path fill-rule="evenodd" clip-rule="evenodd" d="M5.46789 0.997555C5.18866 0.978504 4.84855 0.978509 4.44113 0.978516H4.39482C3.98741 0.978509 3.64728 0.978504 3.36805 0.997555C3.07738 1.01739 2.80281 1.06014 2.53662 1.1704C1.91895 1.42625 1.42821 1.91699 1.17236 2.53467C1.0621 2.80086 1.01934 3.07542 0.999508 3.3661C0.980457 3.64532 0.980462 3.98544 0.980469 4.39286V4.43916C0.980462 4.84658 0.980457 5.18671 0.999508 5.46593C1.01934 5.75661 1.0621 6.03117 1.17236 6.29736C1.42821 6.91504 1.91895 7.40578 2.53662 7.66163C2.80281 7.77189 3.07738 7.81464 3.36805 7.83448C3.64728 7.85353 3.9874 7.85352 4.39482 7.85352H4.44112C4.84854 7.85352 5.18866 7.85353 5.46789 7.83448C5.75856 7.81464 6.03313 7.77189 6.29932 7.66163C6.91699 7.40578 7.40773 6.91504 7.66358 6.29736C7.77384 6.03117 7.8166 5.75661 7.83643 5.46593C7.85548 5.18671 7.85548 4.84659 7.85547 4.43917V4.39286C7.85548 3.98544 7.85548 3.64533 7.83643 3.3661C7.8166 3.07542 7.77384 2.80086 7.66358 2.53467C7.40773 1.91699 6.91699 1.42625 6.29932 1.1704C6.03313 1.06014 5.75856 1.01739 5.46789 0.997555ZM3.06281 2.44074C3.13353 2.41144 3.24098 2.38442 3.46165 2.36937C3.68849 2.35389 3.98145 2.35352 4.41797 2.35352C4.85449 2.35352 5.14745 2.35389 5.37429 2.36937C5.59496 2.38442 5.7024 2.41144 5.77313 2.44074C6.05389 2.55703 6.27695 2.7801 6.39325 3.06086C6.42254 3.13158 6.44956 3.23903 6.46462 3.4597C6.4801 3.68654 6.48047 3.9795 6.48047 4.41602C6.48047 4.85254 6.4801 5.14549 6.46462 5.37234C6.44956 5.593 6.42254 5.70045 6.39325 5.77117C6.27695 6.05194 6.05389 6.275 5.77313 6.39129C5.7024 6.42059 5.59496 6.44761 5.37429 6.46267C5.14745 6.47814 4.85449 6.47852 4.41797 6.47852C3.98145 6.47852 3.68849 6.47814 3.46165 6.46267C3.24098 6.44761 3.13353 6.42059 3.06281 6.39129C2.78205 6.275 2.55899 6.05194 2.44269 5.77117C2.4134 5.70045 2.38637 5.593 2.37132 5.37234C2.35584 5.14549 2.35547 4.85254 2.35547 4.41602C2.35547 3.9795 2.35584 3.68654 2.37132 3.4597C2.38637 3.23903 2.4134 3.13158 2.44269 3.06086C2.55899 2.7801 2.78205 2.55703 3.06281 2.44074Z" fill="white"/>
  <path fill-rule="evenodd" clip-rule="evenodd" d="M14.6346 0.997555C14.3553 0.978504 14.0152 0.978509 13.6078 0.978516H13.5615C13.1541 0.978509 12.8139 0.978504 12.5347 0.997555C12.244 1.01739 11.9695 1.06014 11.7033 1.1704C11.0856 1.42625 10.5949 1.91699 10.339 2.53467C10.2288 2.80086 10.186 3.07542 10.1662 3.3661C10.1471 3.64533 10.1471 3.98544 10.1471 4.39286V4.43917C10.1471 4.84659 10.1471 5.18671 10.1662 5.46593C10.186 5.75661 10.2288 6.03117 10.339 6.29736C10.5949 6.91504 11.0856 7.40578 11.7033 7.66163C11.9695 7.77189 12.244 7.81464 12.5347 7.83448C12.8139 7.85353 13.1541 7.85352 13.5615 7.85352H13.6078C14.0152 7.85352 14.3553 7.85353 14.6346 7.83448C14.9252 7.81464 15.1998 7.77189 15.466 7.66163C16.0837 7.40578 16.5744 6.91504 16.8302 6.29736C16.9405 6.03117 16.9833 5.75661 17.0031 5.46593C17.0221 5.18671 17.0221 4.84659 17.0221 4.43917V4.39286C17.0221 3.98544 17.0221 3.64533 17.0031 3.3661C16.9833 3.07542 16.9405 2.80086 16.8302 2.53467C16.5744 1.91699 16.0837 1.42625 15.466 1.1704C15.1998 1.06014 14.9252 1.01739 14.6346 0.997555ZM12.2295 2.44074C12.3002 2.41144 12.4076 2.38442 12.6283 2.36937C12.8552 2.35389 13.1481 2.35352 13.5846 2.35352C14.0212 2.35352 14.3141 2.35389 14.541 2.36937C14.7616 2.38442 14.8691 2.41144 14.9398 2.44074C15.2206 2.55703 15.4436 2.7801 15.5599 3.06086C15.5892 3.13158 15.6162 3.23903 15.6313 3.4597C15.6468 3.68654 15.6471 3.9795 15.6471 4.41602C15.6471 4.85254 15.6468 5.14549 15.6313 5.37234C15.6162 5.593 15.5892 5.70045 15.5599 5.77117C15.4436 6.05194 15.2206 6.275 14.9398 6.39129C14.8691 6.42059 14.7616 6.44761 14.541 6.46267C14.3141 6.47814 14.0212 6.47852 13.5846 6.47852C13.1481 6.47852 12.8552 6.47814 12.6283 6.46267C12.4076 6.44761 12.3002 6.42059 12.2295 6.39129C11.9487 6.275 11.7257 6.05194 11.6094 5.77117C11.5801 5.70045 11.553 5.593 11.538 5.37234C11.5225 5.14549 11.5221 4.85254 11.5221 4.41602C11.5221 3.9795 11.5225 3.68654 11.538 3.4597C11.553 3.23903 11.5801 3.13158 11.6094 3.06086C11.7257 2.7801 11.9487 2.55703 12.2295 2.44074Z" fill="white"/>
  <path fill-rule="evenodd" clip-rule="evenodd" d="M5.46789 10.1642C5.18866 10.1452 4.84854 10.1452 4.44112 10.1452H4.39482C3.9874 10.1452 3.64728 10.1452 3.36805 10.1642C3.07738 10.1841 2.80281 10.2268 2.53662 10.3371C1.91895 10.5929 1.42821 11.0837 1.17236 11.7013C1.0621 11.9675 1.01934 12.2421 0.999508 12.5328C0.980457 12.812 0.980462 13.1521 0.980469 13.5595V13.6058C0.980462 14.0132 0.980457 14.3534 0.999508 14.6326C1.01934 14.9233 1.0621 15.1978 1.17236 15.464C1.42821 16.0817 1.91895 16.5724 2.53662 16.8283C2.80281 16.9386 3.07738 16.9813 3.36805 17.0011C3.64728 17.0202 3.9874 17.0202 4.39482 17.0202H4.44112C4.84854 17.0202 5.18866 17.0202 5.46789 17.0011C5.75856 16.9813 6.03313 16.9386 6.29932 16.8283C6.91699 16.5724 7.40773 16.0817 7.66358 15.464C7.77384 15.1978 7.8166 14.9233 7.83643 14.6326C7.85548 14.3534 7.85548 14.0133 7.85547 13.6058V13.5595C7.85548 13.1521 7.85548 12.812 7.83643 12.5328C7.8166 12.2421 7.77384 11.9675 7.66358 11.7013C7.40773 11.0837 6.91699 10.5929 6.29932 10.3371C6.03313 10.2268 5.75856 10.1841 5.46789 10.1642ZM3.06281 11.6074C3.13353 11.5781 3.24098 11.5511 3.46165 11.536C3.68849 11.5206 3.98145 11.5202 4.41797 11.5202C4.85449 11.5202 5.14745 11.5206 5.37429 11.536C5.59496 11.5511 5.7024 11.5781 5.77313 11.6074C6.05389 11.7237 6.27695 11.9468 6.39325 12.2275C6.42254 12.2982 6.44956 12.4057 6.46462 12.6264C6.4801 12.8532 6.48047 13.1462 6.48047 13.5827C6.48047 14.0192 6.4801 14.3122 6.46462 14.539C6.44956 14.7597 6.42254 14.8671 6.39325 14.9378C6.27695 15.2186 6.05389 15.4417 5.77313 15.558C5.7024 15.5873 5.59496 15.6143 5.37429 15.6293C5.14745 15.6448 4.85449 15.6452 4.41797 15.6452C3.98145 15.6452 3.68849 15.6448 3.46165 15.6293C3.24098 15.6143 3.13353 15.5873 3.06281 15.558C2.78205 15.4417 2.55899 15.2186 2.44269 14.9378C2.4134 14.8671 2.38637 14.7597 2.37132 14.539C2.35584 14.3122 2.35547 14.0192 2.35547 13.5827C2.35547 13.1462 2.35584 12.8532 2.37132 12.6264C2.38637 12.4057 2.4134 12.2982 2.44269 12.2275C2.55899 11.9468 2.78205 11.7237 3.06281 11.6074Z" fill="white"/>
  <path fill-rule="evenodd" clip-rule="evenodd" d="M14.6346 10.1642C14.3553 10.1452 14.0152 10.1452 13.6078 10.1452H13.5615C13.1541 10.1452 12.8139 10.1452 12.5347 10.1642C12.244 10.1841 11.9695 10.2268 11.7033 10.3371C11.0856 10.5929 10.5949 11.0837 10.339 11.7013C10.2288 11.9675 10.186 12.2421 10.1662 12.5328C10.1471 12.812 10.1471 13.1521 10.1471 13.5595V13.6058C10.1471 14.0133 10.1471 14.3534 10.1662 14.6326C10.186 14.9233 10.2288 15.1978 10.339 15.464C10.5949 16.0817 11.0856 16.5724 11.7033 16.8283C11.9695 16.9386 12.244 16.9813 12.5347 17.0011C12.8139 17.0202 13.1541 17.0202 13.5615 17.0202H13.6078C14.0152 17.0202 14.3553 17.0202 14.6346 17.0011C14.9252 16.9813 15.1998 16.9386 15.466 16.8283C16.0837 16.5724 16.5744 16.0817 16.8302 15.464C16.9405 15.1978 16.9833 14.9233 17.0031 14.6326C17.0221 14.3534 17.0221 14.0133 17.0221 13.6058V13.5595C17.0221 13.1521 17.0221 12.812 17.0031 12.5328C16.9833 12.2421 16.9405 11.9675 16.8302 11.7013C16.5744 11.0837 16.0837 10.5929 15.466 10.3371C15.1998 10.2268 14.9252 10.1841 14.6346 10.1642ZM12.2295 11.6074C12.3002 11.5781 12.4076 11.5511 12.6283 11.536C12.8552 11.5206 13.1481 11.5202 13.5846 11.5202C14.0212 11.5202 14.3141 11.5206 14.541 11.536C14.7616 11.5511 14.8691 11.5781 14.9398 11.6074C15.2206 11.7237 15.4436 11.9468 15.5599 12.2275C15.5892 12.2982 15.6162 12.4057 15.6313 12.6264C15.6468 12.8532 15.6471 13.1462 15.6471 13.5827C15.6471 14.0192 15.6468 14.3122 15.6313 14.539C15.6162 14.7597 15.5892 14.8671 15.5599 14.9378C15.4436 15.2186 15.2206 15.4417 14.9398 15.558C14.8691 15.5873 14.7616 15.6143 14.541 15.6293C14.3141 15.6448 14.0212 15.6452 13.5846 15.6452C13.1481 15.6452 12.8552 15.6448 12.6283 15.6293C12.4076 15.6143 12.3002 15.5873 12.2295 15.558C11.9487 15.4417 11.7257 15.2186 11.6094 14.9378C11.5801 14.8671 11.553 14.7597 11.538 14.539C11.5225 14.3122 11.5221 14.0192 11.5221 13.5827C11.5221 13.1462 11.5225 12.8532 11.538 12.6264C11.553 12.4057 11.5801 12.2982 11.6094 12.2275C11.7257 11.9468 11.9487 11.7237 12.2295 11.6074Z" fill="white"/>
</svg>