<svg width="40" height="40" viewBox="0 0 40 40" fill="none" xmlns="http://www.w3.org/2000/svg">
<path d="M8.33179 14.9967L8.33179 15.9967H8.33179V14.9967ZM9.99845 30.6634C9.44617 30.6634 8.99845 31.1111 8.99845 31.6634C8.99845 32.2157 9.44617 32.6634 9.99845 32.6634V30.6634ZM11.2944 22.3737C11.6867 22.7624 12.3198 22.7596 12.7086 22.3674C13.0974 21.9751 13.0946 21.3419 12.7023 20.9532L11.2944 22.3737ZM9.64775 19.3337L8.9438 20.0439L9.64775 19.3337ZM9.64775 10.6598L8.9438 9.94957L8.9438 9.94957L9.64775 10.6598ZM12.7023 9.04033C13.0946 8.65155 13.0974 8.0184 12.7086 7.62613C12.3198 7.23387 11.6867 7.23105 11.2944 7.61982L12.7023 9.04033ZM6.69156 15.4145L5.69958 15.541L5.69958 15.541L6.69156 15.4145ZM6.69156 14.579L5.69958 14.4525L5.69958 14.4525L6.69156 14.579ZM8.33179 15.9967H23.3318V13.9967H8.33179V15.9967ZM23.3318 30.6634H9.99845V32.6634H23.3318V30.6634ZM30.6651 23.3301C30.6651 27.3802 27.3819 30.6634 23.3318 30.6634V32.6634C28.4864 32.6634 32.6651 28.4847 32.6651 23.3301H30.6651ZM23.3318 15.9967C27.3819 15.9967 30.6651 19.28 30.6651 23.3301H32.6651C32.6651 18.1754 28.4864 13.9967 23.3318 13.9967V15.9967ZM12.7023 20.9532L10.3517 18.6234L8.9438 20.0439L11.2944 22.3737L12.7023 20.9532ZM10.3517 11.3701L12.7023 9.04033L11.2944 7.61982L8.9438 9.94957L10.3517 11.3701ZM10.3517 18.6234C9.3977 17.6779 8.7433 17.0272 8.3005 16.4758C7.87037 15.9402 7.7228 15.5962 7.68353 15.2881L5.69958 15.541C5.80463 16.3651 6.19788 17.0517 6.74111 17.7281C7.27168 18.3888 8.02321 19.1315 8.9438 20.0439L10.3517 18.6234ZM8.9438 9.94957C8.02322 10.862 7.27168 11.6047 6.74112 12.2654C6.19788 12.9418 5.80463 13.6284 5.69958 14.4525L7.68353 14.7054C7.7228 14.3973 7.87037 14.0533 8.3005 13.5177C8.7433 12.9663 9.3977 12.3156 10.3517 11.3701L8.9438 9.94957ZM7.68353 15.2881C7.6712 15.1913 7.66504 15.094 7.66504 14.9967H5.66504C5.66504 15.1785 5.67655 15.3603 5.69958 15.541L7.68353 15.2881ZM7.66504 14.9967C7.66504 14.8994 7.6712 14.8021 7.68353 14.7054L5.69958 14.4525C5.67655 14.6332 5.66504 14.815 5.66504 14.9967H7.66504ZM8.33179 13.9967L6.66504 13.9967L6.66504 15.9967L8.33179 15.9967L8.33179 13.9967Z" fill="#056BE9"/>
</svg>
