<svg xmlns="http://www.w3.org/2000/svg" width="99" height="113" viewBox="0 0 99 113" fill="none">
  <path d="M79.59 112.988H65.4076C65.4076 112.988 59.8555 89.9499 59.8555 88.5512C59.8555 87.1526 76.0233 73.1197 77.5992 78.033C78.9281 82.2913 75.2354 107.622 75.2354 107.622C76.3274 108.133 77.2881 108.882 78.0451 109.813C78.8021 110.744 79.3357 111.833 79.6057 112.998" fill="#D3800B"/>
  <path d="M34.6937 112.99H24.7713C24.7713 112.99 21.2257 102.352 22.6702 94.9791C24.1147 87.6065 32.7134 92.2911 34.1316 93.6949C35.5499 95.0987 33.0496 110.047 33.0496 110.047L34.6937 112.99Z" fill="#D3800B"/>
  <path d="M13.1891 96.5132C33.6274 104.349 56.7866 100.605 65.4116 95.5773C74.0365 90.5496 76.4002 80.7229 76.4002 80.7229L54.1865 49.7298C54.1865 49.7298 36.4639 54.7627 30.2026 53.1249C26.183 52.0091 22.3359 50.3561 18.7674 48.2116C18.7674 48.2116 14.3972 43.4178 12.2698 43.7662C10.1425 44.1145 12.2698 47.4057 12.2698 47.4057C12.2698 47.4057 7.54241 47.4057 5.65143 47.8736C3.76045 48.3416 8.48788 50.6761 8.48788 50.6761C8.48788 50.6761 0.451224 51.7159 0.214852 52.9013C-0.0215203 54.0868 5.17867 54.8875 5.17867 54.8875C5.17867 54.8875 0.451243 56.9672 0.923988 58.527C1.39673 60.0868 6.36054 60.2844 6.36054 60.2844L13.1891 96.5132Z" fill="#EA9705"/>
  <path d="M18.7674 48.2116C18.7674 48.2116 14.3972 43.4178 12.2698 43.7662C10.1425 44.1145 12.2698 47.4057 12.2698 47.4057C12.2698 47.4057 7.54241 47.4057 5.65143 47.8736C3.76045 48.3416 8.48788 50.6812 8.48788 50.6812C8.48788 50.6812 0.451224 51.7211 0.214852 52.9013C-0.0215202 54.0816 5.17867 54.8875 5.17867 54.8875C5.17867 54.8875 0.451243 56.9672 0.923988 58.527C1.39673 60.0868 6.36054 60.2792 6.36054 60.2792C7.71574 54.7731 11.4662 50.5565 18.7674 48.2324" fill="#FFC88F"/>
  <path d="M54.19 49.7285C54.19 49.7285 36.4673 54.7614 30.2061 53.1236C29.7701 53.0093 29.3394 52.8845 28.9139 52.7597C31.8817 56.8671 32.948 61.2398 31.4142 64.9677C28.7406 71.4304 19.0861 73.8585 8.43359 71.3316L13.1926 96.5119C33.6309 104.347 56.7901 100.604 65.415 95.576C74.04 90.5483 76.4037 80.7216 76.4037 80.7216L54.19 49.7285Z" fill="#EA9705"/>
  <path d="M66.1129 66.373C66.0762 67.1529 66.0184 67.9328 65.9186 68.7179C63.6704 86.3176 46.1001 98.614 26.6808 96.1807C21.5775 95.553 16.6561 93.9062 12.2148 91.3401L13.1918 96.5134C33.273 105.321 56.4742 101.307 65.0992 96.2795C73.7241 91.2517 76.403 80.7231 76.403 80.7231L66.1129 66.373Z" fill="#D3800B"/>
  <path d="M18.8863 67.2715C18.8863 67.2715 23.8081 76.4379 20.1994 96.7464L15.7031 96.1225L18.8863 67.2715Z" fill="#D3800B"/>
  <path d="M42.4071 70.875C42.4071 70.875 35.3159 84.2892 38.7827 98.7901H46.3466L42.4071 70.875Z" fill="#D3800B"/>
  <path d="M55.4857 112.988H42.9632C43.103 111.58 43.4572 110.2 44.0137 108.896C44.0137 108.896 40.237 92.8773 40.237 91.4735C40.237 90.0697 37.4006 72.756 41.7708 67.8478C46.1411 62.9397 55.1232 82.1148 56.4207 85.3903C57.7181 88.6659 54.3616 109.588 54.3616 109.588L55.4857 112.988Z" fill="#EA9705"/>
  <path d="M49.8125 106.646C48.0882 106.637 46.3816 106.991 44.8067 107.686C44.3263 107.91 43.9006 108.234 43.5587 108.636C43.2169 109.038 42.9671 109.509 42.8264 110.016C42.5574 110.989 42.366 111.982 42.2539 112.984H56.7356C56.7356 112.984 55.2333 107.863 54.6766 107.619C53.141 106.962 51.4852 106.626 49.8125 106.631" fill="#FFC88F"/>
  <path d="M70.8484 106.594C72.9146 106.589 74.966 106.941 76.91 107.634C78.0992 108.055 79.094 108.888 79.7097 109.979C80.2219 110.942 80.6557 111.943 81.0071 112.974H64.1406C64.1406 112.974 64.8865 108.632 65.4118 108.258C67.0062 107.157 68.904 106.567 70.8484 106.568" fill="#FFC88F"/>
  <path d="M64.9451 95.2229C52.9689 89.4569 49.3497 75.3044 49.3497 75.3044L48.5618 76.5522L44.1495 68.7532L38.0039 63.1432V61.2714C38.0039 61.2714 33.1241 60.4915 32.9613 59.8676C32.7984 59.2437 35.0098 55.3442 35.0098 55.3442C35.0098 55.3442 32.9613 55.8122 32.8037 55.0323C32.6461 54.2524 38.9493 47.0825 38.9493 47.0825C38.9493 47.0825 36.1129 47.0825 35.7977 46.3026C35.4825 45.5227 43.2041 37.5678 46.986 36.008C46.986 36.008 45.2526 35.696 45.4102 34.7601C45.5678 33.8243 48.877 32.7324 48.877 32.7324C48.877 32.7324 65.4178 24.4707 66.2109 24.4707C67.0041 24.4707 76.1333 25.8745 77.7091 26.3424C79.285 26.8104 89.5225 34.4482 90.7831 36.4759C92.0438 38.5037 97.8743 47.8624 97.7168 49.729C97.7168 49.729 98.9774 51.6007 98.5047 52.6926C98.0319 53.7844 96.6136 54.4083 96.6136 54.4083C96.6136 54.4083 98.5046 57.5279 98.1894 58.1519C97.8743 58.7758 95.8257 57.8399 95.8257 57.8399C95.8257 57.8399 94.0923 63.9231 93.462 64.703C92.8317 65.4829 91.8862 64.547 91.8862 64.547L86.5652 71.3945L85.5147 76.7706L83.7813 77.5505C83.7813 77.5505 84.0334 79.9734 83.5029 80.982C82.7045 82.5054 69.3993 93.9179 64.9555 95.2489" fill="#FFDBBC"/>
  <path d="M94.3034 58.3496L88.4728 65.2647L87.375 70.3548L91.8819 64.5732C91.8819 64.5732 92.8274 65.5091 93.4577 64.7292C93.9357 64.1417 95.0335 60.5333 95.5588 58.802C95.3329 58.8178 95.1061 58.7882 94.8922 58.715C94.6782 58.6417 94.4815 58.5263 94.3139 58.3756" fill="#FFC88F"/>
  <path d="M85.4073 71.477C84.9522 72.7543 84.4261 74.0058 83.8315 75.2257C82.9543 76.7855 69.6072 88.0992 64.7326 89.5082C51.6008 83.9501 49.6836 69.2621 49.6836 69.2621L46.7631 71.1234L41.9254 63.4077L35.1861 57.9016V56.0298L34.6608 55.957C34.0463 57.0853 32.8329 59.399 32.9537 59.8669C33.1113 60.4908 37.9911 61.2707 37.9911 61.2707V63.1425L44.1368 68.7525L48.549 76.5515L49.3369 75.3037C49.3369 75.3037 52.956 89.4562 64.9322 95.2222C69.376 93.8964 82.6812 82.4787 83.4796 80.9553C84.0049 79.9467 83.7579 77.5238 83.7579 77.5238L85.4914 76.7491L86.5419 71.3678L86.9936 70.7855L85.4073 71.477Z" fill="#FFC88F"/>
  <path d="M59.9769 47.6284C62.5664 46.2454 68.1763 36.06 69.5946 24.9126C67.8717 24.6579 66.485 24.4707 66.2013 24.4707C65.4134 24.4707 48.8674 32.7324 48.8674 32.7324C48.8674 32.7324 45.5582 33.8243 45.4006 34.7601C45.243 35.696 46.9764 36.008 46.9764 36.008C43.1944 37.5678 35.4729 45.5227 35.7881 46.3026C36.1033 47.0825 38.9397 47.0825 38.9397 47.0825C38.9397 47.0825 33.23 53.5816 32.8203 54.8815C43.0736 51.3719 57.4345 48.9855 59.9716 47.6336" fill="#EA9705"/>
  <path d="M74.2619 43.2051C74.8134 46.2571 83.8901 55.647 95.1099 60.2224C95.5143 58.9174 95.819 57.8411 95.819 57.8411C95.819 57.8411 97.8676 58.777 98.1828 58.1531C98.4979 57.5292 96.6069 54.4096 96.6069 54.4096C96.6069 54.4096 98.0252 53.7857 98.4979 52.6938C98.9706 51.602 97.71 49.7302 97.71 49.7302C97.8676 47.8637 92.037 38.5049 90.7764 36.4772C89.5157 34.4495 79.2782 26.8116 77.7024 26.3437C77.1298 26.1721 75.5645 25.881 73.7681 25.5742C73.3552 31.4531 73.5206 37.3579 74.2619 43.2051Z" fill="#EA9705"/>
  <path d="M55.7256 0.496999C52.3008 2.0152 45.4461 24.5854 47.5734 34.5265L66.2416 25.4069C66.2416 25.4069 59.1556 -1.0264 55.7361 0.496999" fill="#EA9705"/>
  <path d="M54.5653 5.6915C52.6375 6.4194 47.9363 23.6187 48.6612 31.9324L59.1929 27.253C59.1929 27.253 56.493 4.94278 54.5653 5.67588" fill="#FF632A"/>
  <path d="M88.6883 2.48329C85.3791 1.90096 76.2814 16.8698 75.3359 27.2788L91.5248 38.5041C92.2339 33.1228 91.9975 3.07081 88.6883 2.48329Z" fill="#EA9705"/>
  <path d="M72.8164 58.8284C73.9195 61.1733 77.1131 63.3934 78.5944 62.6187C80.0757 61.844 78.3948 55.5996 78.3948 55.5996L72.8164 58.8284Z" fill="#EC6D53"/>
  <path d="M57.7691 43.7302H55.668C55.668 43.7302 56.0619 38.5829 57.4802 38.3489C58.8984 38.1149 57.7953 43.7302 57.7953 43.7302" fill="#1A1A1A"/>
  <path d="M80.7012 45.5893L78.5738 45.2929C78.5738 45.2929 78.3637 39.8908 79.7557 39.844C81.1476 39.7972 80.7012 45.5633 80.7012 45.5633" fill="#1A1A1A"/>
  <path d="M67.8776 51.7625C66.0706 52.0172 63.6754 49.5683 63.875 49.1628C64.0746 48.7573 70.2886 48.83 70.651 49.324C71.0134 49.8179 69.1277 51.6013 67.8776 51.7781" fill="#1A1A1A"/>
  <path d="M87.9222 6.13261C85.7266 5.96103 80.5684 18.4706 80.1797 27.2782L90.5591 36.0391C90.911 31.4637 90.1178 6.3198 87.9327 6.14822" fill="#FF632A"/>
  <path d="M82.9006 28.2713C82.9006 18.6058 85.0017 10.2401 88.043 6.169C88.0052 6.14987 87.9643 6.13754 87.9222 6.13261C85.7266 5.96103 80.5684 18.4706 80.1797 27.2782L82.9111 29.5763C82.9111 29.1448 82.9111 28.708 82.9111 28.2713" fill="#E15024"/>
  <path d="M14.9988 112.99H3.18018C3.18018 112.99 -1.97273 93.3465 0.847978 71.473C2.14015 61.4487 15.6186 45.3257 20.1202 71.3586C21.0552 76.7399 12.5983 108.424 12.5983 108.424L14.9988 112.99Z" fill="#EA9705"/>
  <path d="M20.1207 71.3959C17.7464 57.6489 14.101 50.9158 9.83059 53.5727C6.01712 55.9488 1.45778 66.7789 0.848461 71.5103C-0.0878058 79.1476 -0.249686 86.8585 0.36522 94.5277C2.17215 97.4497 4.4991 99.077 7.1202 98.8743C11.6008 98.5259 15.7924 92.9159 18.2717 84.9089C19.5586 78.7841 20.4621 73.3509 20.1207 71.3907" fill="#EA9705"/>
  <path d="M9.41522 106.75C7.69131 106.744 5.98556 107.099 4.40937 107.79C3.93201 108.005 3.50824 108.322 3.16791 108.717C2.82757 109.113 2.57895 109.577 2.4396 110.078C2.17447 111.035 1.98826 112.012 1.88281 113H16.3646C16.3646 113 15.2615 108.767 14.2635 108.128C12.8053 107.229 11.1224 106.752 9.40471 106.75" fill="#FFC88F"/>
  <path d="M56.1371 8.87235C56.5364 13.2253 56.4536 17.6083 55.8902 21.9434C55.5905 24.4283 55.1433 26.8936 54.5508 29.3265L59.1942 27.2467C59.1942 27.2467 57.6972 14.8672 56.1371 8.85156" fill="#E15024"/>
  <path d="M67.5679 51.3672C67.5679 51.3672 67.5259 56.5665 67.8831 56.7641C69.7449 57.3915 71.6384 57.9225 73.556 58.3551C74.1863 58.4019 77.7162 56.3221 77.942 55.8802C78.0562 55.6886 78.1312 55.4766 78.1626 55.2563" stroke="#1A1A1A" stroke-width="1.35192" stroke-miterlimit="10" stroke-linecap="round"/>
  <path d="M67.4736 51.3203C67.4736 51.3203 67.5157 56.5196 67.1585 56.7172C65.2942 57.344 63.3991 57.8767 61.4803 58.3134C60.8552 58.355 57.3254 56.2753 57.0995 55.8333C56.986 55.6433 56.911 55.4331 56.8789 55.2146" stroke="#1A1A1A" stroke-width="1.35192" stroke-miterlimit="10" stroke-linecap="round"/>
  <path d="M88.4766 66.2732C86.6848 67.8525 84.397 68.7708 82 68.8728C82 69.4863 82.8089 69.6735 83.4025 69.8399C83.8002 69.9237 84.1673 70.1132 84.4644 70.388C84.7615 70.6628 84.9772 71.0126 85.0886 71.3997C85.2672 72.3459 84.5634 73.2038 84.2587 74.1241L84.9993 73.9421C85.2148 74.7061 85.2825 75.5034 85.1989 76.2922C85.2011 75.9043 85.2812 75.5207 85.4345 75.1636C85.5878 74.8066 85.8112 74.4833 86.0919 74.2125C86.6172 73.6354 87.2317 73.1726 87.6677 72.5279C88.138 71.7512 88.5573 70.9454 88.9231 70.1154C89.5272 69.0184 90.4201 68.1033 91.0715 67.0322C91.3603 66.5539 92.5737 63.9127 91.2868 63.8555C90.8929 63.8555 90.2363 64.7706 89.9526 65.0305C89.4694 65.4569 88.9599 65.852 88.4556 66.2471" fill="#FFC88F"/>
  <path d="M64.5742 82.3588H64.7003C65.4942 82.359 66.2565 82.0508 66.8232 81.5005C67.39 80.9502 67.716 80.2017 67.7311 79.416" stroke="#EC9605" stroke-width="2.02787" stroke-miterlimit="10"/>
  <path d="M61.5859 79.4219C61.6009 80.2004 61.921 80.9427 62.4788 81.4919C63.0365 82.041 63.7881 82.354 64.5747 82.3647" stroke="#F60504" stroke-width="2.02787" stroke-miterlimit="10"/>
  <path d="M67.7214 79.4068V76.3809H64.6328" stroke="#056BE9" stroke-width="2.02787" stroke-miterlimit="10"/>
  <path d="M64.643 76.3809H61.5859V79.4329" stroke="black" stroke-width="2.02787" stroke-miterlimit="10"/>
  <path d="M47.6602 67.7539C53.5939 69.304 59.6776 70.2243 65.8083 70.4992C72.3228 70.7965 78.8483 70.2317 85.2118 68.8198C85.2118 68.8198 80.5632 72.8908 67.153 73.4212C53.7428 73.9515 47.6602 67.7539 47.6602 67.7539Z" fill="#F60504"/>
  <path d="M63.9702 71.541C63.9702 71.541 61.2178 74.0003 62.9617 75.3261C64.7056 76.6519 64.9734 73.5999 64.9734 73.5999C64.9734 73.5999 63.9702 74.5982 63.7023 74.3954C63.4344 74.1927 63.9702 71.541 63.9702 71.541Z" fill="#EA9705"/>
</svg>