<svg width="48" height="48" viewBox="0 0 48 48" fill="none" xmlns="http://www.w3.org/2000/svg">
<path d="M39.6631 23.0915L38.7608 22.8239L39.6631 23.0915ZM37.698 29.7157L38.6003 29.9834L37.698 29.7157ZM10.1418 29.7157L11.0441 29.448V29.448L10.1418 29.7157ZM8.17673 23.0915L7.27442 23.3592L8.17673 23.0915ZM17.8903 39.6097L18.1507 38.7053H18.1507L17.8903 39.6097ZM12.2308 35.3853L11.4378 35.8921L12.2308 35.3853ZM35.609 35.3853L36.4021 35.8921L35.609 35.3853ZM29.9495 39.6097L29.6891 38.7053L29.9495 39.6097ZM41.6659 16V15.0588H40.9269L40.7516 15.7767L41.6659 16ZM6.17397 16V15.0588H4.97522L5.25968 16.2233L6.17397 16ZM3.91992 15.0588C3.40012 15.0588 2.97875 15.4802 2.97875 16C2.97875 16.5198 3.40012 16.9412 3.91992 16.9412V15.0588ZM43.9199 16.9412C44.4397 16.9412 44.8611 16.5198 44.8611 16C44.8611 15.4802 44.4397 15.0588 43.9199 15.0588V16.9412ZM28.8611 20.2353C28.8611 19.7155 28.4397 19.2941 27.9199 19.2941C27.4001 19.2941 26.9787 19.7155 26.9787 20.2353H28.8611ZM26.9787 28.2353C26.9787 28.7551 27.4001 29.1765 27.9199 29.1765C28.4397 29.1765 28.8611 28.7551 28.8611 28.2353H26.9787ZM20.8611 20.2353C20.8611 19.7155 20.4397 19.2941 19.9199 19.2941C19.4001 19.2941 18.9787 19.7155 18.9787 20.2353H20.8611ZM18.9787 28.2353C18.9787 28.7551 19.4001 29.1765 19.9199 29.1765C20.4397 29.1765 20.8611 28.7551 20.8611 28.2353H18.9787ZM38.7608 22.8239L36.7957 29.448L38.6003 29.9834L40.5654 23.3592L38.7608 22.8239ZM11.0441 29.448L9.07904 22.8238L7.27442 23.3592L9.23949 29.9834L11.0441 29.448ZM23.9199 39.0588C20.7444 39.0588 19.3478 39.0499 18.1507 38.7053L17.63 40.5141C19.1443 40.9501 20.8636 40.9412 23.9199 40.9412V39.0588ZM9.23949 29.9834C10.1087 32.9134 10.5891 34.5643 11.4378 35.8921L13.0238 34.8784C12.353 33.8288 11.9472 32.4924 11.0441 29.448L9.23949 29.9834ZM18.1507 38.7053C16.0332 38.0956 14.2105 36.7351 13.0238 34.8784L11.4378 35.8921C12.871 38.1346 15.0725 39.7779 17.63 40.5141L18.1507 38.7053ZM36.7957 29.448C35.8926 32.4924 35.4869 33.8288 34.816 34.8784L36.4021 35.8921C37.2507 34.5643 37.7311 32.9134 38.6003 29.9834L36.7957 29.448ZM23.9199 40.9412C26.9762 40.9412 28.6955 40.9501 30.2099 40.5141L29.6891 38.7053C28.492 39.0499 27.0954 39.0588 23.9199 39.0588V40.9412ZM34.816 34.8784C33.6293 36.7351 31.8066 38.0956 29.6891 38.7053L30.2099 40.5141C32.7674 39.7779 34.9688 38.1346 36.4021 35.8921L34.816 34.8784ZM40.5654 23.3592C41.4101 20.5119 42.1027 18.1778 42.5802 16.2233L40.7516 15.7767C40.2875 17.6765 39.6102 19.9607 38.7608 22.8239L40.5654 23.3592ZM9.07904 22.8238C8.22968 19.9607 7.55234 17.6765 7.08827 15.7767L5.25968 16.2233C5.73709 18.1778 6.42978 20.5119 7.27442 23.3592L9.07904 22.8238ZM26.9787 20.2353V28.2353H28.8611V20.2353H26.9787ZM18.9787 20.2353V28.2353H20.8611V20.2353H18.9787ZM37.92 16.9412H41.9199V15.0588H37.92V16.9412ZM41.9199 16.9412H43.9199V15.0588H41.9199V16.9412ZM41.6659 16.9412H41.9199V15.0588H41.6659V16.9412ZM3.91992 16.9412H10.4052V15.0588H3.91992V16.9412ZM10.4052 16.9412H37.92V15.0588H10.4052V16.9412ZM6.17397 16.9412H10.4052V15.0588H6.17397V16.9412Z" fill="#056BE9"/>
<path d="M31.5273 35.2949V35.2949C27.8165 31.2467 21.4343 31.2467 17.7234 35.2949V35.2949" stroke="#056BE9" stroke-width="1.88235" stroke-linecap="round"/>
<path d="M18.9802 7.68555L11.4508 15.215" stroke="#056BE9" stroke-width="1.88235" stroke-linecap="round"/>
<path d="M29.7715 7.68555L37.3009 15.215" stroke="#056BE9" stroke-width="1.88235" stroke-linecap="round"/>
</svg>
