<svg width="32" height="32" viewBox="0 0 32 32" fill="none" xmlns="http://www.w3.org/2000/svg">
<path d="M12.6628 31V30.25V31ZM10.9961 31V31.75V31ZM0.996094 21H1.74609H0.996094ZM0.996094 11H0.246094H0.996094ZM10.9961 1V0.25V1ZM12.6628 1V1.75V1ZM1.09869 8.02971L0.357924 7.91239L0.357924 7.91239L1.09869 8.02971ZM8.02581 1.1026L8.14313 1.84336L8.02581 1.1026ZM8.0258 30.8974L7.90848 31.6382L7.90848 31.6382L8.0258 30.8974ZM1.09869 23.9703L0.357924 24.0876H0.357924L1.09869 23.9703ZM18.1132 29.9336C18.4444 29.6849 18.5112 29.2147 18.2624 28.8835C18.0137 28.5523 17.5435 28.4855 17.2123 28.7343L18.1132 29.9336ZM17.2123 3.26573C17.5435 3.5145 18.0137 3.44768 18.2624 3.11649C18.5112 2.7853 18.4444 2.31515 18.1132 2.06638L17.2123 3.26573ZM7.66276 15.25C7.24855 15.25 6.91276 15.5858 6.91276 16C6.91276 16.4142 7.24855 16.75 7.66276 16.75V15.25ZM29.3294 16V16.75V16ZM24.7954 8.74565C24.4708 8.4883 23.9991 8.54279 23.7417 8.86736C23.4844 9.19193 23.5389 9.66367 23.8635 9.92102L24.7954 8.74565ZM27.2677 11.6631L27.7337 11.0754L27.2677 11.6631ZM27.2677 20.3369L27.7337 20.9246L27.2677 20.3369ZM23.8635 22.079C23.5389 22.3363 23.4844 22.8081 23.7417 23.1326C23.9991 23.4572 24.4708 23.5117 24.7954 23.2543L23.8635 22.079ZM30.9629 15.5822L31.7036 15.4642V15.4642L30.9629 15.5822ZM30.9629 16.4178L31.7036 16.5358V16.5358L30.9629 16.4178ZM30.9961 16L31.7461 16L30.9961 16ZM12.6628 30.25H10.9961V31.75H12.6628V30.25ZM1.74609 21L1.74609 11H0.246094L0.246094 21H1.74609ZM10.9961 1.75L12.6628 1.75V0.25L10.9961 0.25V1.75ZM1.74609 11C1.74609 9.423 1.74842 8.72182 1.83946 8.14704L0.357924 7.91239C0.243767 8.63315 0.246094 9.48032 0.246094 11H1.74609ZM10.9961 0.25C9.47641 0.25 8.62925 0.247672 7.90848 0.361831L8.14313 1.84336C8.71791 1.75233 9.41909 1.75 10.9961 1.75V0.25ZM1.83946 8.14704C2.35339 4.90219 4.89828 2.3573 8.14313 1.84336L7.90848 0.361831C4.02179 0.977422 0.973516 4.0257 0.357924 7.91239L1.83946 8.14704ZM10.9961 30.25C9.41909 30.25 8.71791 30.2477 8.14313 30.1566L7.90848 31.6382C8.62925 31.7523 9.47641 31.75 10.9961 31.75V30.25ZM0.246094 21C0.246094 22.5197 0.243766 23.3668 0.357924 24.0876L1.83946 23.853C1.74842 23.2782 1.74609 22.577 1.74609 21H0.246094ZM8.14313 30.1566C4.89828 29.6427 2.35339 27.0978 1.83946 23.853L0.357924 24.0876C0.973515 27.9743 4.02179 31.0226 7.90848 31.6382L8.14313 30.1566ZM12.6628 31.75C14.7067 31.75 16.595 31.074 18.1132 29.9336L17.2123 28.7343C15.945 29.6862 14.3708 30.25 12.6628 30.25V31.75ZM12.6628 1.75C14.3708 1.75 15.945 2.31379 17.2123 3.26573L18.1132 2.06638C16.595 0.926027 14.7067 0.25 12.6628 0.25V1.75ZM7.66276 16.75L29.3294 16.75V15.25L7.66276 15.25V16.75ZM23.8635 9.92102L26.8017 12.2508L27.7337 11.0754L24.7954 8.74565L23.8635 9.92102ZM26.8017 19.7492L23.8635 22.079L24.7954 23.2543L27.7337 20.9246L26.8017 19.7492ZM26.8017 12.2508C27.9877 13.1911 28.826 13.8573 29.3971 14.4261C29.9648 14.9916 30.1693 15.3676 30.2223 15.7002L31.7036 15.4642C31.5762 14.6646 31.1047 14.0099 30.4557 13.3634C29.81 12.7203 28.8909 11.993 27.7337 11.0754L26.8017 12.2508ZM27.7337 20.9246C28.8909 20.007 29.81 19.2797 30.4557 18.6366C31.1047 17.9901 31.5762 17.3354 31.7036 16.5358L30.2223 16.2998C30.1693 16.6324 29.9648 17.0084 29.3971 17.5739C28.826 18.1427 27.9877 18.8089 26.8017 19.7492L27.7337 20.9246ZM30.2223 15.7002C30.2382 15.8001 30.2461 15.9001 30.2461 16L31.7461 16C31.7461 15.8208 31.7319 15.6418 31.7036 15.4642L30.2223 15.7002ZM30.2461 16C30.2461 16.0999 30.2382 16.1999 30.2223 16.2998L31.7036 16.5358C31.7319 16.3582 31.7461 16.1792 31.7461 16L30.2461 16ZM29.3294 16.75H30.9961V15.25H29.3294V16.75Z" fill="#056BE9"/>
</svg>
