<svg width="20" height="16" viewBox="0 0 20 16" fill="none" xmlns="http://www.w3.org/2000/svg">
<path d="M9.99935 9.75065C9.58513 9.75065 9.24935 10.0864 9.24935 10.5007C9.24935 10.9149 9.58513 11.2507 9.99935 11.2507V9.75065ZM13.2493 8.00065C13.2493 7.58644 12.9136 7.25065 12.4993 7.25065C12.0851 7.25065 11.7493 7.58644 11.7493 8.00065H13.2493ZM2.68324 6.43848L2.07398 6.0011L2.68324 6.43848ZM2.68306 9.56256L3.29232 9.12519L3.29232 9.12519L2.68306 9.56256ZM4.82266 12.078L5.3856 11.5824L5.3666 11.5608L5.34599 11.5408L4.82266 12.078ZM15.0835 3.83398L14.5649 4.37572L14.5862 4.39612L14.609 4.41478L15.0835 3.83398ZM1.94678 8.00063L1.19678 8.00063L1.94678 8.00063ZM17.3155 9.56282L17.9247 10.0002V10.0002L17.3155 9.56282ZM17.3154 6.43842L16.7062 6.8758L16.7062 6.8758L17.3154 6.43842ZM17.0923 4.91385C16.8301 4.59312 16.3576 4.54561 16.0369 4.80773C15.7162 5.06985 15.6687 5.54234 15.9308 5.86307L17.0923 4.91385ZM6.68688 12.6759C6.35046 12.4343 5.88184 12.5111 5.6402 12.8476C5.39856 13.184 5.47539 13.6526 5.81182 13.8942L6.68688 12.6759ZM18.0519 8.00065L17.3019 8.00065L18.0519 8.00065ZM1.19749 14.0817C0.874048 14.3404 0.821607 14.8124 1.08036 15.1358C1.33912 15.4593 1.81109 15.5117 2.13454 15.253L1.19749 14.0817ZM18.8012 1.91964C19.1246 1.66088 19.1771 1.18891 18.9183 0.865463C18.6596 0.542017 18.1876 0.489576 17.8642 0.748333L18.8012 1.91964ZM15.145 3.88416L15.6135 4.46981L15.145 3.88416ZM4.85572 12.1156L5.32424 12.7012L4.85572 12.1156ZM9.99935 4.75065C8.20442 4.75065 6.74935 6.20573 6.74935 8.00065H8.24935C8.24935 7.03415 9.03285 6.25065 9.99935 6.25065V4.75065ZM6.74935 8.00065C6.74935 8.76391 7.01339 9.46758 7.45455 10.0223L8.62857 9.08868C8.39088 8.7898 8.24935 8.41279 8.24935 8.00065H6.74935ZM12.5364 5.96923C11.942 5.22766 11.0261 4.75065 9.99935 4.75065V6.25065C10.5517 6.25065 11.044 6.50569 11.3659 6.90735L12.5364 5.96923ZM9.99935 11.2507C11.7943 11.2507 13.2493 9.79558 13.2493 8.00065H11.7493C11.7493 8.96715 10.9658 9.75065 9.99935 9.75065V11.2507ZM9.99935 0.583984C8.17395 0.583984 6.53323 1.48627 5.21327 2.56703C3.88472 3.65481 2.80073 4.98878 2.07398 6.0011L3.2925 6.87587C3.98031 5.91778 4.97657 4.69949 6.16354 3.72763C7.35908 2.74874 8.66914 2.08398 9.99935 2.08398V0.583984ZM2.07379 9.99994C2.62812 10.7721 3.38655 11.7261 4.29933 12.6152L5.34599 11.5408C4.51509 10.7314 3.81336 9.851 3.29232 9.12519L2.07379 9.99994ZM15.6022 3.29225C14.1512 1.90297 12.2073 0.583984 9.99935 0.583984V2.08398C11.6194 2.08398 13.2021 3.071 14.5649 4.37572L15.6022 3.29225ZM2.07398 6.0011C1.6178 6.63654 1.19679 7.17929 1.19678 8.00063L2.69678 8.00064C2.69678 7.74938 2.76674 7.60823 3.2925 6.87587L2.07398 6.0011ZM3.29232 9.12519C2.7667 8.393 2.69678 8.25191 2.69678 8.00064L1.19678 8.00063C1.19677 8.82195 1.61771 9.36461 2.07379 9.99994L3.29232 9.12519ZM9.99935 15.4173C11.8247 15.4173 13.4655 14.515 14.7854 13.4343C16.114 12.3465 17.198 11.0125 17.9247 10.0002L16.7062 9.12543C16.0184 10.0835 15.0221 11.3018 13.8352 12.2737C12.6396 13.2526 11.3296 13.9173 9.99935 13.9173V15.4173ZM17.9247 6.00103C17.6836 5.66527 17.4048 5.29627 17.0923 4.91385L15.9308 5.86307C16.221 6.21818 16.4809 6.56199 16.7062 6.8758L17.9247 6.00103ZM5.81182 13.8942C7.01092 14.7555 8.4367 15.4173 9.99935 15.4173V13.9173C8.86431 13.9173 7.7421 13.4339 6.68688 12.6759L5.81182 13.8942ZM17.9247 10.0002C18.3809 9.36475 18.8019 8.82199 18.8019 8.00064L17.3019 8.00065C17.3019 8.25191 17.232 8.39306 16.7062 9.12543L17.9247 10.0002ZM16.7062 6.8758C17.232 7.60822 17.3019 7.74939 17.3019 8.00065L18.8019 8.00064C18.8019 7.17929 18.3809 6.63651 17.9247 6.00103L16.7062 6.8758ZM15.6135 4.46981L18.8012 1.91964L17.8642 0.748333L14.6764 3.29851L15.6135 4.46981ZM14.609 4.41478L14.6704 4.46496L15.6195 3.30337L15.5581 3.25319L14.609 4.41478ZM2.13454 15.253L5.32424 12.7012L4.3872 11.5299L1.19749 14.0817L2.13454 15.253ZM5.32424 12.7012L15.6135 4.46981L14.6764 3.29851L4.3872 11.5299L5.32424 12.7012ZM4.25972 12.5736L4.29278 12.6111L5.41867 11.62L5.3856 11.5824L4.25972 12.5736Z" fill="#1A1A1A"/>
</svg>
