<svg width="38" height="35" viewBox="0 0 38 35" fill="none" xmlns="http://www.w3.org/2000/svg">
<path d="M1 13C1 10.2386 3.23858 8 6 8C8.76142 8 11 10.2386 11 13V29C11 31.7614 8.76142 34 6 34C3.23858 34 1 31.7614 1 29V13Z" stroke="#056BE9" stroke-width="1.88"/>
<path d="M18.1508 2.3799L13.6898 9.62914C12.492 11.5755 11.8931 12.5486 11.531 13.6151C11.4206 13.9404 11.3269 14.2712 11.2505 14.6061C11 15.7042 11 16.8468 11 19.1322V26C11 30.4183 14.5817 34 19 34H24.8197C28.6074 34 32.07 31.86 33.7639 28.4721L36.061 23.8781C38.3301 19.3397 35.03 14 29.956 14H28.5765C25.1185 14 22.4742 10.9177 23 7.5L23.4861 4.34045C23.7563 2.58402 22.3973 1 20.6203 1C19.6134 1 18.6785 1.52237 18.1508 2.3799Z" stroke="#056BE9" stroke-width="1.88"/>
</svg>
