<svg width="174" height="44" viewBox="0 0 174 44" fill="none" xmlns="http://www.w3.org/2000/svg">
<mask id="mask0_510_110028" style="mask-type:luminance" maskUnits="userSpaceOnUse" x="33" y="5" width="12" height="12">
<path d="M44.3631 5.32031H33.1914V16.492H44.3631V5.32031Z" fill="white"/>
</mask>
<g mask="url(#mask0_510_110028)">
<path d="M49.7954 10.8008H38.7266V21.8668H49.7954V10.8008Z" stroke="white" stroke-width="2.08755" stroke-miterlimit="10"/>
</g>
<mask id="mask1_510_110028" style="mask-type:luminance" maskUnits="userSpaceOnUse" x="33" y="16" width="12" height="12">
<path d="M44.3631 16.4941H33.1914V27.6658H44.3631V16.4941Z" fill="white"/>
</mask>
<g mask="url(#mask1_510_110028)">
<path d="M49.7954 10.8027H38.7266V21.8687H49.7954V10.8027Z" stroke="white" stroke-width="2.08755" stroke-miterlimit="10"/>
<path d="M38.7617 21.3242V29.6487" stroke="white" stroke-width="2.08755" stroke-miterlimit="10"/>
</g>
<mask id="mask2_510_110028" style="mask-type:luminance" maskUnits="userSpaceOnUse" x="44" y="5" width="12" height="12">
<path d="M55.531 5.32031H44.3594V16.492H55.531V5.32031Z" fill="white"/>
</mask>
<g mask="url(#mask2_510_110028)">
<path d="M49.8396 16.3866C49.8396 19.4708 47.338 21.9724 44.2538 21.9724C41.1696 21.9724 38.668 19.4708 38.668 16.3866C38.668 13.3024 41.1696 10.8008 44.2538 10.8008C47.338 10.8008 49.8396 13.3024 49.8396 16.3866Z" stroke="white" stroke-width="2.08755" stroke-miterlimit="10"/>
</g>
<mask id="mask3_510_110028" style="mask-type:luminance" maskUnits="userSpaceOnUse" x="44" y="16" width="12" height="12">
<path d="M55.531 16.4941H44.3594V27.6658H55.531V16.4941Z" fill="white"/>
</mask>
<g mask="url(#mask3_510_110028)">
<path d="M49.8396 16.285C49.8396 19.3692 47.338 21.8709 44.2538 21.8709C41.1696 21.8709 38.668 19.3692 38.668 16.285C38.668 13.2008 41.1696 10.6992 44.2538 10.6992C47.338 10.6992 49.8396 13.2008 49.8396 16.285Z" stroke="white" stroke-width="2.08755" stroke-miterlimit="10"/>
</g>
<path d="M63.3115 28.5142C63.8949 25.4849 61.912 22.5562 58.8827 21.9729C55.8534 21.3895 52.9248 23.3724 52.3414 26.4017C51.7581 29.431 53.7409 32.3596 56.7702 32.943C59.7995 33.5263 62.7282 31.5435 63.3115 28.5142Z" stroke="white" stroke-width="2.08755" stroke-miterlimit="10"/>
<path d="M64.4313 21.1016H62.3438V33.8382H64.4313V21.1016Z" fill="white"/>
<path d="M39.7907 27.5859H37.7031V33.8286H39.7907V27.5859Z" fill="white"/>
<path d="M113.121 21.3339L102.035 32.4199L103.439 33.8233L114.525 22.7373L113.121 21.3339Z" fill="white"/>
<path d="M113.215 21.2344L112.664 21.7855V33.9738H114.752V21.2344H113.215Z" fill="white"/>
<path d="M103.447 33.8339V21.2344H101.359V33.9738H103.307L103.447 33.8339Z" fill="white"/>
<path d="M148.285 21.3339L137.199 32.4199L138.603 33.8233L149.689 22.7373L148.285 21.3339Z" fill="white"/>
<path d="M148.373 21.2324L147.941 21.6665V33.9719H150.029V21.2324H148.373Z" fill="white"/>
<path d="M138.72 33.7092V21.2324H136.633V33.9719H138.458L138.72 33.7092Z" fill="white"/>
<path d="M126.756 23.1074H124.668V33.9735H126.756V23.1074Z" fill="white"/>
<path d="M131.359 21.2324H120.188V23.2172H131.359V21.2324Z" fill="white"/>
<path d="M96.0164 24.9916C96.0164 22.9012 94.3144 21.1992 92.224 21.1992C92.1355 21.1992 92.0498 21.2049 91.9613 21.2106L85.8843 21.2078H84.8477V33.9587H91.8956C92.0041 33.9672 92.1127 33.9729 92.2212 33.9729C94.3116 33.9729 96.0136 32.2709 96.0136 30.1805C96.0136 29.201 95.6424 28.2815 94.9884 27.5875C95.6338 26.8993 96.0136 25.9826 96.0136 24.9945M92.2212 31.8854V31.8797H86.9266V28.4128H91.3245C91.3245 28.4128 91.927 28.4042 92.284 28.4328C92.521 28.4499 92.7838 28.5585 92.9351 28.627C92.9951 28.6527 93.1007 28.7184 93.1436 28.7469C93.6319 29.0639 93.926 29.598 93.926 30.1805C93.926 31.1201 93.1607 31.8854 92.2212 31.8854ZM93.3977 26.2253C93.1807 26.391 93.0208 26.4195 92.8352 26.4481C92.7181 26.4652 92.5924 26.4738 92.481 26.4795H86.9266V23.2868H88.8343C88.8343 23.2868 88.8343 23.2896 88.8343 23.2925H92.1526C92.1755 23.2925 92.1983 23.2896 92.2212 23.2896C92.244 23.2896 92.2669 23.2925 92.2897 23.2925H92.4496V23.3068C93.2807 23.4181 93.926 24.1321 93.926 24.9945C93.926 25.4714 93.729 25.9112 93.3977 26.2282" fill="white"/>
<path d="M167.867 26.1445H156.695V28.1293H167.867V26.1445Z" fill="white"/>
<mask id="mask4_510_110028" style="mask-type:luminance" maskUnits="userSpaceOnUse" x="161" y="27" width="12" height="12">
<path d="M172.984 27.4492H161.812V38.6209H172.984V27.4492Z" fill="white"/>
</mask>
<g mask="url(#mask4_510_110028)">
<path d="M167.438 28.2451C167.932 25.2 165.864 22.3307 162.819 21.8364C159.774 21.3421 156.905 23.41 156.411 26.4551C155.916 29.5002 157.984 32.3695 161.029 32.8637C164.074 33.358 166.944 31.2902 167.438 28.2451Z" stroke="white" stroke-width="2.08755" stroke-miterlimit="10"/>
</g>
<mask id="mask5_510_110028" style="mask-type:luminance" maskUnits="userSpaceOnUse" x="162" y="16" width="12" height="13">
<path d="M173.191 16.3809H162.02V28.1208H173.191V16.3809Z" fill="white"/>
</mask>
<g mask="url(#mask5_510_110028)">
<path d="M161.916 34.0785C158.261 34.0785 155.285 31.1028 155.285 27.4474C155.285 23.7921 158.258 20.8164 161.916 20.8164C165.574 20.8164 168.547 23.7892 168.547 27.4474C168.547 31.1056 165.574 34.0785 161.916 34.0785ZM161.916 22.9068C159.412 22.9068 157.376 24.9429 157.376 27.4474C157.376 29.9519 159.412 31.9881 161.916 31.9881C164.421 31.9881 166.457 29.9491 166.457 27.4474C166.457 24.9458 164.421 22.9068 161.916 22.9068Z" fill="white"/>
</g>
<mask id="mask6_510_110028" style="mask-type:luminance" maskUnits="userSpaceOnUse" x="150" y="28" width="12" height="11">
<path d="M161.808 28.0449H150.637V38.4141H161.808V28.0449Z" fill="white"/>
</mask>
<g mask="url(#mask6_510_110028)">
<path d="M161.912 33.9769C158.257 33.9769 155.281 31.0012 155.281 27.3459C155.281 23.6905 158.254 20.7148 161.912 20.7148C165.57 20.7148 168.543 23.6877 168.543 27.3459C168.543 31.0041 165.57 33.9769 161.912 33.9769ZM161.912 22.8052C159.408 22.8052 157.372 24.8442 157.372 27.3459C157.372 29.8475 159.408 31.8865 161.912 31.8865C164.417 31.8865 166.453 29.8475 166.453 27.3459C166.453 24.8442 164.417 22.8052 161.912 22.8052Z" fill="white"/>
</g>
<mask id="mask7_510_110028" style="mask-type:luminance" maskUnits="userSpaceOnUse" x="150" y="16" width="13" height="13">
<path d="M162.011 16.1719H150.84V28.1289H162.011V16.1719Z" fill="white"/>
</mask>
<g mask="url(#mask7_510_110028)">
<path d="M165.861 31.4009C168.042 29.2195 168.042 25.6828 165.861 23.5014C163.68 21.32 160.143 21.32 157.961 23.5014C155.78 25.6828 155.78 29.2195 157.961 31.4009C160.143 33.5823 163.68 33.5823 165.861 31.4009Z" stroke="white" stroke-width="2.08755" stroke-miterlimit="10"/>
</g>
<path d="M169.507 28.1348H164.746V30.1195H169.507V28.1348Z" fill="#1A1A1A"/>
<path d="M79.6037 24.8479C79.6037 23.4144 78.8012 22.1635 77.6247 21.5181C76.7451 21.1098 75.8227 20.8613 74.8489 20.8613C74.2406 20.8613 73.6381 20.947 73.0584 21.1069C71.5791 21.3554 70.3882 22.4663 70.017 23.9027H72.273C72.3044 23.857 72.3387 23.8142 72.373 23.7713C72.6814 23.2859 73.6181 22.9346 74.729 22.9346C75.0916 22.9346 75.4372 22.9746 75.7485 23.0403C75.7684 23.046 75.7884 23.0488 75.8084 23.0517C76.034 23.1088 76.2397 23.1745 76.4224 23.2573C77.0592 23.5029 77.5133 24.1226 77.5133 24.8451C77.5133 25.282 77.3477 25.679 77.0792 25.9788C77.0792 25.9788 76.925 26.0988 76.7508 26.1816C76.5709 26.2644 76.3567 26.3215 76.1511 26.3443C75.9883 26.3615 75.8427 26.3586 75.7884 26.3586H73.0098V28.2891H75.8084C75.9227 28.2977 76.1197 28.3234 76.3425 28.4062C76.4538 28.449 76.5509 28.4976 76.6366 28.549C76.7137 28.5918 76.7879 28.6432 76.8593 28.6975C76.905 28.7317 76.9307 28.7546 76.9307 28.7546C77.2877 29.0687 77.5133 29.5256 77.5133 30.034C77.5133 30.6023 77.2334 31.1049 76.8051 31.4133C76.4652 31.6789 75.9284 31.8816 75.2915 31.973C75.0574 32.0101 74.8203 32.033 74.5805 32.033C74.5262 32.033 74.4719 32.0273 74.4177 32.0273C73.1069 32.0044 72.036 31.5361 71.8561 30.9278H69.6172C69.7914 31.636 70.1655 32.27 70.6767 32.7583L70.6967 32.7783C71.8447 33.6322 73.1469 34.1205 74.5805 34.1205C75.7313 34.1205 76.8651 33.8207 77.8588 33.2524L77.8446 33.2267C78.8983 32.5527 79.598 31.3733 79.598 30.0311C79.598 29.0287 79.2068 28.1149 78.5699 27.4381C79.2068 26.7584 79.598 25.8474 79.598 24.8451" fill="white"/>
<g clip-path="url(#clip0_510_110028)">
<mask id="mask8_510_110028" style="mask-type:luminance" maskUnits="userSpaceOnUse" x="-110" y="-43" width="245" height="137">
<path d="M134.884 -42.2891H-109.113V93.0943H134.884V-42.2891Z" fill="white"/>
</mask>
<g mask="url(#mask8_510_110028)">
<path d="M12.7812 32.5646C12.9325 32.5708 13.0837 32.5758 13.2375 32.5758C19.1328 32.5758 23.92 27.9151 24.028 22.125" stroke="#EC9605" stroke-width="2.05722" stroke-miterlimit="10"/>
<path d="M2.13672 22.125C2.24347 27.865 6.95185 32.4931 12.7773 32.5721" stroke="#F60504" stroke-width="2.05722" stroke-miterlimit="10"/>
<path d="M23.9937 22.0775V11.332H12.9961" stroke="#056BE9" stroke-width="2.05722" stroke-miterlimit="10"/>
<path d="M13.0275 11.3242H2.13281V22.1724" stroke="white" stroke-width="2.05722" stroke-miterlimit="10"/>
</g>
</g>
<defs>
<clipPath id="clip0_510_110028">
<rect width="25.3027" height="24.2026" fill="white" transform="translate(0.226562 9.90039)"/>
</clipPath>
</defs>
</svg>
