<svg width="147" height="38" viewBox="0 0 147 38" fill="none" xmlns="http://www.w3.org/2000/svg">
<g clip-path="url(#clip0_6407_40908)">
<mask id="mask0_6407_40908" style="mask-type:luminance" maskUnits="userSpaceOnUse" x="28" y="4" width="10" height="10">
<path d="M37.6541 4.51562H28.1719V13.9978H37.6541V4.51562Z" fill="white"/>
</mask>
<g mask="url(#mask0_6407_40908)">
<path d="M42.266 9.16797H32.8711V18.5605H42.266V9.16797Z" stroke="black" stroke-width="1.77185" stroke-miterlimit="10"/>
</g>
<mask id="mask1_6407_40908" style="mask-type:luminance" maskUnits="userSpaceOnUse" x="28" y="13" width="10" height="11">
<path d="M37.6541 13.998H28.1719V23.4802H37.6541V13.998Z" fill="white"/>
</mask>
<g mask="url(#mask1_6407_40908)">
<path d="M42.266 9.16797H32.8711V18.5605H42.266V9.16797Z" stroke="black" stroke-width="1.77185" stroke-miterlimit="10"/>
<path d="M32.9023 18.0977V25.1632" stroke="black" stroke-width="1.77185" stroke-miterlimit="10"/>
</g>
<mask id="mask2_6407_40908" style="mask-type:luminance" maskUnits="userSpaceOnUse" x="37" y="4" width="11" height="10">
<path d="M47.1345 4.51562H37.6523V13.9978H47.1345V4.51562Z" fill="white"/>
</mask>
<g mask="url(#mask2_6407_40908)">
<path d="M42.3025 13.9091C42.3025 16.5268 40.1792 18.6502 37.5614 18.6502C34.9436 18.6502 32.8203 16.5268 32.8203 13.9091C32.8203 11.2913 34.9436 9.16797 37.5614 9.16797C40.1792 9.16797 42.3025 11.2913 42.3025 13.9091Z" stroke="black" stroke-width="1.77185" stroke-miterlimit="10"/>
</g>
<mask id="mask3_6407_40908" style="mask-type:luminance" maskUnits="userSpaceOnUse" x="37" y="13" width="11" height="11">
<path d="M47.1345 13.998H37.6523V23.4802H47.1345V13.998Z" fill="white"/>
</mask>
<g mask="url(#mask3_6407_40908)">
<path d="M42.3025 13.8212C42.3025 16.4389 40.1792 18.5623 37.5614 18.5623C34.9436 18.5623 32.8203 16.4389 32.8203 13.8212C32.8203 11.2034 34.9436 9.08008 37.5614 9.08008C40.1792 9.08008 42.3025 11.2034 42.3025 13.8212Z" stroke="black" stroke-width="1.77185" stroke-miterlimit="10"/>
</g>
<path d="M53.7428 24.198C54.2379 21.6268 52.5549 19.1411 49.9837 18.646C47.4126 18.1508 44.9268 19.8338 44.4317 22.405C43.9365 24.9762 45.6195 27.4619 48.1907 27.9571C50.7619 28.4522 53.2477 26.7692 53.7428 24.198Z" stroke="black" stroke-width="1.77185" stroke-miterlimit="10"/>
<path d="M54.6898 17.9062H52.918V28.7167H54.6898V17.9062Z" fill="black"/>
<path d="M33.7758 23.4121H32.0039V28.7107H33.7758V23.4121Z" fill="black"/>
<path d="M98.4659 18.8867H98.0781V19.3036H98.4659V18.8867Z" fill="white"/>
<path d="M96.015 18.1042L86.6055 27.5137L87.7967 28.7049L97.2062 19.2953L96.015 18.1042Z" fill="black"/>
<path d="M96.0967 18.0215L95.6289 18.4893V28.8344H97.4008V18.0215H96.0967Z" fill="black"/>
<path d="M87.8031 28.7156V18.0215H86.0312V28.8344H87.6843L87.8031 28.7156Z" fill="black"/>
<path d="M125.863 18.1042L116.453 27.5137L117.644 28.7049L127.054 19.2953L125.863 18.1042Z" fill="black"/>
<path d="M125.936 18.0195L125.57 18.388V28.8324H127.342V18.0195H125.936Z" fill="black"/>
<path d="M117.745 28.6094V18.0195H115.973V28.8324H117.522L117.745 28.6094Z" fill="black"/>
<path d="M107.588 19.6094H105.816V28.8322H107.588V19.6094Z" fill="black"/>
<path d="M111.498 18.0195H102.016V19.7041H111.498V18.0195Z" fill="black"/>
<path d="M81.4993 21.2091C81.4993 19.4349 80.0547 17.9902 78.2804 17.9902C78.2052 17.9902 78.1325 17.9951 78.0574 17.9999L72.8994 17.9975H72.0195V28.8201H78.0016C78.0937 28.8274 78.1859 28.8322 78.278 28.8322C80.0522 28.8322 81.4969 27.3876 81.4969 25.6133C81.4969 24.7819 81.1818 24.0014 80.6267 23.4124C81.1745 22.8283 81.4969 22.0502 81.4969 21.2116M78.278 27.0604V27.0555H73.7841V24.1129H77.5169C77.5169 24.1129 78.0283 24.1057 78.3313 24.1299C78.5325 24.1444 78.7555 24.2366 78.8839 24.2947C78.9348 24.3165 79.0245 24.3723 79.0609 24.3965C79.4754 24.6656 79.725 25.1188 79.725 25.6133C79.725 26.4108 79.0754 27.0604 78.278 27.0604ZM79.2766 22.2562C79.0924 22.3968 78.9566 22.4211 78.7991 22.4453C78.6997 22.4599 78.5931 22.4671 78.4985 22.472H73.7841V19.7621H75.4032C75.4032 19.7621 75.4032 19.7645 75.4032 19.7669H78.2198C78.2392 19.7669 78.2586 19.7645 78.278 19.7645C78.2974 19.7645 78.3167 19.7669 78.3361 19.7669H78.4719V19.7791C79.1772 19.8736 79.725 20.4796 79.725 21.2116C79.725 21.6163 79.5578 21.9896 79.2766 22.2587" fill="black"/>
<path d="M142.482 22.1875H133V23.8721H142.482V22.1875Z" fill="black"/>
<mask id="mask4_6407_40908" style="mask-type:luminance" maskUnits="userSpaceOnUse" x="137" y="23" width="10" height="10">
<path d="M146.826 23.2988H137.344V32.781H146.826V23.2988Z" fill="white"/>
</mask>
<g mask="url(#mask4_6407_40908)">
<path d="M142.119 23.9742C142.539 21.3896 140.784 18.9543 138.199 18.5347C135.615 18.1152 133.179 19.8703 132.76 22.4549C132.34 25.0395 134.095 27.4749 136.68 27.8944C139.264 28.314 141.7 26.5588 142.119 23.9742Z" stroke="black" stroke-width="1.77185" stroke-miterlimit="10"/>
</g>
<mask id="mask5_6407_40908" style="mask-type:luminance" maskUnits="userSpaceOnUse" x="137" y="13" width="10" height="11">
<path d="M146.998 13.9043H137.516V23.8688H146.998V13.9043Z" fill="white"/>
</mask>
<g mask="url(#mask5_6407_40908)">
<path d="M137.429 28.9244C134.326 28.9244 131.801 26.3987 131.801 23.2962C131.801 20.1936 134.324 17.668 137.429 17.668C140.534 17.668 143.057 20.1912 143.057 23.2962C143.057 26.4012 140.534 28.9244 137.429 28.9244ZM137.429 19.4422C135.303 19.4422 133.575 21.1705 133.575 23.2962C133.575 25.4219 135.303 27.1501 137.429 27.1501C139.555 27.1501 141.283 25.4195 141.283 23.2962C141.283 21.1729 139.555 19.4422 137.429 19.4422Z" fill="black"/>
</g>
<mask id="mask6_6407_40908" style="mask-type:luminance" maskUnits="userSpaceOnUse" x="127" y="23" width="11" height="10">
<path d="M137.342 23.8027H127.859V32.6038H137.342V23.8027Z" fill="white"/>
</mask>
<g mask="url(#mask6_6407_40908)">
<path d="M137.429 28.8365C134.326 28.8365 131.801 26.3109 131.801 23.2083C131.801 20.1058 134.324 17.5801 137.429 17.5801C140.534 17.5801 143.057 20.1033 143.057 23.2083C143.057 26.3133 140.534 28.8365 137.429 28.8365ZM137.429 19.3544C135.303 19.3544 133.575 21.085 133.575 23.2083C133.575 25.3316 135.303 27.0623 137.429 27.0623C139.555 27.0623 141.283 25.3316 141.283 23.2083C141.283 21.085 139.555 19.3544 137.429 19.3544Z" fill="black"/>
</g>
<mask id="mask7_6407_40908" style="mask-type:luminance" maskUnits="userSpaceOnUse" x="128" y="13" width="10" height="11">
<path d="M137.517 13.7266H128.035V23.8753H137.517V13.7266Z" fill="white"/>
</mask>
<g mask="url(#mask7_6407_40908)">
<path d="M140.784 26.6513C142.635 24.7998 142.635 21.7979 140.784 19.9464C138.932 18.0949 135.931 18.0949 134.079 19.9464C132.228 21.7979 132.228 24.7998 134.079 26.6513C135.931 28.5028 138.932 28.5028 140.784 26.6513Z" stroke="black" stroke-width="1.77185" stroke-miterlimit="10"/>
</g>
<path d="M143.88 23.877H139.84V25.5615H143.88V23.877Z" fill="white"/>
<path d="M67.57 21.0868C67.57 19.8701 66.8889 18.8084 65.8903 18.2606C65.1437 17.914 64.3608 17.7031 63.5343 17.7031C63.018 17.7031 62.5066 17.7758 62.0145 17.9116C60.7589 18.1225 59.7482 19.0653 59.4331 20.2845H61.3479C61.3746 20.2458 61.4037 20.2094 61.4328 20.173C61.6946 19.761 62.4896 19.4629 63.4325 19.4629C63.7403 19.4629 64.0336 19.4968 64.2978 19.5525C64.3148 19.5574 64.3317 19.5598 64.3487 19.5622C64.5402 19.6107 64.7147 19.6665 64.8698 19.7367C65.4104 19.9452 65.7958 20.4712 65.7958 21.0844C65.7958 21.4553 65.6552 21.7922 65.4273 22.0467C65.4273 22.0467 65.2964 22.1485 65.1486 22.2188C64.9959 22.2891 64.8141 22.3376 64.6396 22.357C64.5014 22.3715 64.3778 22.3691 64.3317 22.3691H61.9733V24.0076H64.3487C64.4457 24.0149 64.6129 24.0367 64.802 24.107C64.8965 24.1433 64.9789 24.1846 65.0516 24.2282C65.1171 24.2645 65.1801 24.3082 65.2407 24.3542C65.2795 24.3833 65.3013 24.4027 65.3013 24.4027C65.6043 24.6693 65.7958 25.0571 65.7958 25.4886C65.7958 25.9709 65.5582 26.3975 65.1946 26.6593C64.9062 26.8847 64.4505 27.0568 63.91 27.1344C63.7112 27.1659 63.51 27.1853 63.3064 27.1853C63.2604 27.1853 63.2143 27.1805 63.1683 27.1805C62.0557 27.1611 61.1468 26.7636 60.9941 26.2473H59.0938C59.2416 26.8484 59.5591 27.3865 59.993 27.801L60.01 27.8179C60.9844 28.5427 62.0897 28.9572 63.3064 28.9572C64.2833 28.9572 65.2455 28.7026 66.089 28.2203L66.0769 28.1985C66.9713 27.6264 67.5652 26.6254 67.5652 25.4862C67.5652 24.6354 67.2331 23.8598 66.6926 23.2853C67.2331 22.7084 67.5652 21.9352 67.5652 21.0844" fill="black"/>
<g clip-path="url(#clip1_6407_40908)">
<mask id="mask8_6407_40908" style="mask-type:luminance" maskUnits="userSpaceOnUse" x="-93" y="-36" width="208" height="116">
<path d="M114.242 -35.5664H-92.8555V79.3432H114.242V-35.5664Z" fill="white"/>
</mask>
<g mask="url(#mask8_6407_40908)">
<path d="M10.6055 27.9663C10.7338 27.9716 10.8622 27.9759 10.9927 27.9759C15.9965 27.9759 20.0597 24.02 20.1514 19.1055" stroke="#EC9605" stroke-width="1.74611" stroke-miterlimit="10"/>
<path d="M1.57031 19.1055C1.66092 23.9774 5.65726 27.9056 10.6017 27.9727" stroke="#F60504" stroke-width="1.74611" stroke-miterlimit="10"/>
<path d="M20.1196 19.0638V9.94336H10.7852" stroke="#056BE9" stroke-width="1.74611" stroke-miterlimit="10"/>
<path d="M10.8135 9.9375H1.56641V19.1452" stroke="black" stroke-width="1.74611" stroke-miterlimit="10"/>
</g>
</g>
</g>
<defs>
<clipPath id="clip0_6407_40908">
<rect width="147" height="37.3459" fill="white"/>
</clipPath>
<clipPath id="clip1_6407_40908">
<rect width="21.4762" height="20.5425" fill="white" transform="translate(-0.0429688 8.72852)"/>
</clipPath>
</defs>
</svg>
