<svg width="36" height="32" viewBox="0 0 36 32" fill="none" xmlns="http://www.w3.org/2000/svg">
<path d="M6.21554 9.21489L6.74587 8.68456L6.21554 9.21489ZM3.00065 6L3.53098 5.46967L3.00065 6ZM4.76911 29.4085L5.20995 28.8017H5.20995L4.76911 29.4085ZM2.92551 27.5649L2.31875 28.0057L2.92551 27.5649ZM33.0758 27.5649L32.469 27.124L33.0758 27.5649ZM31.2322 29.4085L30.7914 28.8017H30.7914L31.2322 29.4085ZM4.76911 2.59152L4.32827 1.98476V1.98476L4.76911 2.59152ZM2.92551 4.43512L2.31875 3.99428H2.31875L2.92551 4.43512ZM26.853 13.1654C27.152 12.8788 27.162 12.404 26.8754 12.105C26.5888 11.8059 26.114 11.7959 25.815 12.0825L26.853 13.1654ZM35.4047 12.6147C35.3996 12.2005 35.0597 11.8689 34.6455 11.874C34.2313 11.8791 33.8997 12.2191 33.9048 12.6332L35.4047 12.6147ZM22.9917 1.76196C23.4058 1.76692 23.7456 1.43518 23.7506 1.021C23.7556 0.606816 23.4238 0.267029 23.0096 0.262064L22.9917 1.76196ZM2.36903 5.36838L1.69338 5.04281L2.36903 5.36838ZM6.74587 8.68456L3.53098 5.46967L2.47032 6.53033L5.68521 9.74522L6.74587 8.68456ZM5.68521 9.74522C8.44799 12.508 10.5723 14.6346 12.4421 16.0612C14.3292 17.5009 16.0448 18.2982 18.0007 18.2982V16.7982C16.5047 16.7982 15.1056 16.2066 13.3519 14.8686C11.581 13.5174 9.53864 11.4773 6.74587 8.68456L5.68521 9.74522ZM16.334 1.75H19.6673V0.25H16.334V1.75ZM19.6673 30.25H16.334V31.75H19.6673V30.25ZM16.334 30.25C13.1925 30.25 10.8966 30.249 9.1102 30.0554C7.33781 29.8634 6.15606 29.4891 5.20995 28.8017L4.32827 30.0152C5.5727 30.9194 7.04861 31.3408 8.94863 31.5467C10.8346 31.751 13.2259 31.75 16.334 31.75V30.25ZM0.583984 16C0.583984 19.1081 0.582955 21.4994 0.787288 23.3853C0.993143 25.2854 1.41461 26.7613 2.31875 28.0057L3.53227 27.124C2.84488 26.1779 2.47059 24.9962 2.27856 23.2238C2.08501 21.4373 2.08398 19.1415 2.08398 16H0.583984ZM5.20995 28.8017C4.56616 28.334 4.00001 27.7678 3.53227 27.124L2.31875 28.0057C2.879 28.7768 3.55714 29.455 4.32827 30.0152L5.20995 28.8017ZM33.9173 16C33.9173 19.1415 33.9163 21.4373 33.7227 23.2238C33.5307 24.9962 33.1564 26.1779 32.469 27.124L33.6826 28.0057C34.5867 26.7613 35.0082 25.2854 35.214 23.3853C35.4183 21.4994 35.4173 19.1081 35.4173 16H33.9173ZM19.6673 31.75C22.7754 31.75 25.1667 31.751 27.0527 31.5467C28.9527 31.3408 30.4286 30.9194 31.673 30.0152L30.7914 28.8017C29.8452 29.4891 28.6635 29.8634 26.8911 30.0554C25.1047 30.249 22.8088 30.25 19.6673 30.25V31.75ZM32.469 27.124C32.0013 27.7678 31.4351 28.334 30.7914 28.8017L31.673 30.0152C32.4442 29.455 33.1223 28.7768 33.6826 28.0057L32.469 27.124ZM16.334 0.25C13.2259 0.25 10.8346 0.248971 8.94863 0.453304C7.04861 0.659158 5.5727 1.08063 4.32827 1.98476L5.20995 3.19829C6.15606 2.5109 7.33781 2.1366 9.1102 1.94458C10.8966 1.75103 13.1925 1.75 16.334 1.75V0.25ZM4.32827 1.98476C3.55714 2.54502 2.879 3.22316 2.31875 3.99428L3.53227 4.87596C4.00001 4.23218 4.56616 3.66602 5.20995 3.19829L4.32827 1.98476ZM25.815 12.0825C22.3671 15.3875 20.3152 16.7982 18.0007 16.7982V18.2982C20.9929 18.2982 23.4513 16.4261 26.853 13.1654L25.815 12.0825ZM35.4173 16C35.4173 14.758 35.4173 13.6334 35.4047 12.6147L33.9048 12.6332C33.9173 13.6409 33.9173 14.7555 33.9173 16H35.4173ZM19.6673 1.75C20.8943 1.75 21.9951 1.75001 22.9917 1.76196L23.0096 0.262064C22.0023 0.249989 20.8919 0.25 19.6673 0.25V1.75ZM33.9173 4.33333C33.9173 5.76007 32.7607 6.91667 31.334 6.91667V8.41667C33.5891 8.41667 35.4173 6.5885 35.4173 4.33333H33.9173ZM31.334 6.91667C29.9072 6.91667 28.7507 5.76007 28.7507 4.33333H27.2507C27.2507 6.5885 29.0788 8.41667 31.334 8.41667V6.91667ZM28.7507 4.33333C28.7507 2.9066 29.9072 1.75 31.334 1.75V0.25C29.0788 0.25 27.2507 2.07817 27.2507 4.33333H28.7507ZM31.334 1.75C32.7607 1.75 33.9173 2.9066 33.9173 4.33333H35.4173C35.4173 2.07817 33.5891 0.25 31.334 0.25V1.75ZM2.08398 16C2.08398 13.2819 2.08447 11.1937 2.21123 9.51574C2.33786 7.8396 2.58687 6.64406 3.04468 5.69395L1.69338 5.04281C1.11615 6.24075 0.84763 7.65373 0.715497 9.40274C0.583497 11.15 0.583984 13.3035 0.583984 16H2.08398ZM3.04468 5.69395C3.18533 5.40208 3.34666 5.13143 3.53227 4.87596L2.31875 3.99428C2.07908 4.32415 1.87197 4.6722 1.69338 5.04281L3.04468 5.69395ZM3.53098 5.46967L2.89936 4.83805L1.8387 5.89871L2.47032 6.53033L3.53098 5.46967Z" fill="#056BE9"/>
</svg>
