<svg width="40" height="40" viewBox="0 0 40 40" fill="none" xmlns="http://www.w3.org/2000/svg">
<path d="M7.31439 35.4432L7.70626 34.8037L7.31439 35.4432ZM4.56321 32.692L5.20269 32.3002L4.56321 32.692ZM35.4405 32.692L34.8011 32.3002L35.4405 32.692ZM32.6894 35.4432L32.2975 34.8037L32.6894 35.4432ZM32.6894 9.56589L32.2975 10.2054L32.6894 9.56589ZM35.4405 12.3171L34.8011 12.7089L35.4405 12.3171ZM7.31439 9.56589L7.70626 10.2054L7.31439 9.56589ZM4.56321 12.3171L5.20269 12.7089L4.56321 12.3171ZM30.7965 4.24864L31.3378 3.72947V3.72947L30.7965 4.24864ZM6.40891 4.82254L6.86176 5.4204H6.86176L6.40891 4.82254ZM4.75929 6.54234L5.3746 6.97115L4.75929 6.54234ZM31.6685 8.5551H32.4186L32.4185 8.55139L31.6685 8.5551ZM30.6079 22.194C31.0222 22.194 31.3579 21.8582 31.3579 21.444C31.3579 21.0298 31.0222 20.694 30.6079 20.694V22.194ZM26.0625 20.694C25.6483 20.694 25.3125 21.0298 25.3125 21.444C25.3125 21.8582 25.6483 22.194 26.0625 22.194V20.694ZM17.5019 9.08789H22.5019V7.58789H17.5019V9.08789ZM22.5019 35.9212H17.5019V37.4212H22.5019V35.9212ZM17.5019 35.9212C14.7595 35.9212 12.7554 35.9204 11.1847 35.7711C9.62518 35.6228 8.57057 35.3334 7.70626 34.8037L6.92252 36.0827C8.06212 36.7811 9.3734 37.1056 11.0427 37.2644C12.7009 37.422 14.7885 37.4212 17.5019 37.4212V35.9212ZM2.58521 22.5046C2.58521 25.2179 2.58442 27.3056 2.74208 28.9637C2.9008 30.633 3.22538 31.9443 3.92373 33.0839L5.20269 32.3002C4.67304 31.4359 4.38362 30.3813 4.23534 28.8217C4.086 27.2511 4.08521 25.2469 4.08521 22.5046H2.58521ZM7.70626 34.8037C6.68588 34.1785 5.82798 33.3206 5.20269 32.3002L3.92373 33.0839C4.6727 34.3061 5.7003 35.3337 6.92252 36.0827L7.70626 34.8037ZM22.5019 37.4212C25.2152 37.4212 27.3029 37.422 28.961 37.2644C30.6304 37.1056 31.9416 36.7811 33.0812 36.0827L32.2975 34.8037C31.4332 35.3334 30.3786 35.6228 28.8191 35.7711C27.2484 35.9204 25.2443 35.9212 22.5019 35.9212V37.4212ZM34.8011 32.3002C34.1758 33.3206 33.3179 34.1785 32.2975 34.8037L33.0812 36.0827C34.3035 35.3337 35.3311 34.3061 36.08 33.0839L34.8011 32.3002ZM32.2975 10.2054C33.3179 10.8307 34.1758 11.6886 34.8011 12.7089L36.08 11.9252C35.3311 10.703 34.3035 9.67538 33.0812 8.92641L32.2975 10.2054ZM17.5019 7.58789C14.7885 7.58789 12.7009 7.5871 11.0427 7.74476C9.3734 7.90348 8.06212 8.22806 6.92252 8.92641L7.70626 10.2054C8.57057 9.67572 9.62518 9.3863 11.1847 9.23802C12.7554 9.08868 14.7595 9.08789 17.5019 9.08789V7.58789ZM4.08521 22.5046C4.08521 19.7622 4.086 17.7581 4.23534 16.1874C4.38362 14.6279 4.67304 13.5733 5.20269 12.7089L3.92373 11.9252C3.22538 13.0648 2.9008 14.3761 2.74208 16.0454C2.58442 17.7036 2.58521 19.7912 2.58521 22.5046H4.08521ZM6.92252 8.92641C5.7003 9.67538 4.6727 10.703 3.92373 11.9252L5.20269 12.7089C5.82798 11.6886 6.68588 10.8307 7.70626 10.2054L6.92252 8.92641ZM16.757 4.08789H25.7049V2.58789H16.757V4.08789ZM25.7049 4.08789C27.133 4.08789 28.1254 4.08962 28.8735 4.19447C29.5967 4.29584 29.9796 4.48043 30.2552 4.76781L31.3378 3.72947C30.7398 3.1061 29.9829 2.83532 29.0817 2.70899C28.2054 2.58616 27.0888 2.58789 25.7049 2.58789V4.08789ZM16.757 2.58789C13.9784 2.58789 11.8317 2.58677 10.1368 2.77821C8.42598 2.97145 7.08639 3.36852 5.95607 4.22468L6.86176 5.4204C7.6915 4.79191 8.72995 4.44665 10.3052 4.26873C11.8963 4.08901 13.9436 4.08789 16.757 4.08789V2.58789ZM4.08521 17.3306C4.08521 14.3996 4.08616 12.2592 4.2592 10.5941C4.43097 8.94124 4.76552 7.84514 5.3746 6.97115L4.14397 6.11352C3.32898 7.28298 2.95149 8.66608 2.76724 10.439C2.58426 12.1997 2.58521 14.4317 2.58521 17.3306H4.08521ZM5.95607 4.22468C5.25954 4.75227 4.64825 5.38991 4.14397 6.11352L5.3746 6.97115C5.79015 6.37487 6.29224 5.85178 6.86176 5.4204L5.95607 4.22468ZM32.4185 8.55139C32.4129 7.41941 32.3881 6.48243 32.2551 5.71953C32.1188 4.93755 31.8587 4.27254 31.3378 3.72947L30.2552 4.76781C30.5022 5.02524 30.6725 5.37516 30.7774 5.97712C30.8856 6.59817 30.9129 7.41418 30.9186 8.5588L32.4185 8.55139ZM2.58521 17.3306C2.58521 18.9743 2.55165 20.4395 2.58546 21.6915L4.08491 21.651C4.05176 20.4235 4.08521 19.027 4.08521 17.3306H2.58521ZM35.8352 25.2394H26.0625V26.7394H35.8352V25.2394ZM20.767 21.444C20.767 24.3686 23.1379 26.7394 26.0625 26.7394V25.2394C23.9663 25.2394 22.267 23.5401 22.267 21.444H20.767ZM22.267 21.444C22.267 19.3478 23.9663 17.6485 26.0625 17.6485V16.1485C23.1379 16.1485 20.767 18.5194 20.767 21.444H22.267ZM30.6079 20.694H26.0625V22.194H30.6079V20.694ZM22.5019 9.08789C24.8038 9.08789 26.5886 9.08821 28.0385 9.17768C29.4876 9.26709 30.5453 9.44324 31.4023 9.76871L31.9348 8.36644C30.8705 7.96222 29.6382 7.77353 28.1309 7.68052C26.6244 7.58757 24.7866 7.58789 22.5019 7.58789V9.08789ZM31.4023 9.76871C31.7249 9.89126 32.0202 10.0354 32.2975 10.2054L33.0812 8.92641C32.7201 8.70511 32.3402 8.5204 31.9348 8.36644L31.4023 9.76871ZM30.9185 8.5551V9.06757H32.4185V8.5551H30.9185ZM26.0625 17.6485H36.5759V16.1485H26.0625V17.6485ZM37.4185 22.5046C37.4185 20.208 37.4189 18.3628 37.3244 16.8517L35.8274 16.9453C35.9182 18.399 35.9185 20.1905 35.9185 22.5046H37.4185ZM37.3244 16.8517C37.1954 14.7866 36.8857 13.2399 36.08 11.9252L34.8011 12.7089C35.4136 13.7085 35.7032 14.9589 35.8274 16.9453L37.3244 16.8517ZM35.9185 22.5046C35.9185 23.8159 35.9185 24.9615 35.9017 25.977L37.4015 26.0019C37.4186 24.9715 37.4185 23.8123 37.4185 22.5046H35.9185ZM35.9017 25.977C35.8476 29.231 35.6141 30.9735 34.8011 32.3002L36.08 33.0839C37.1335 31.3648 37.3479 29.2252 37.4015 26.0019L35.9017 25.977ZM35.8352 26.7394H36.6516V25.2394H35.8352V26.7394Z" fill="#056BE9"/>
</svg>
