<svg width="15" height="15" viewBox="0 0 15 15" fill="none" xmlns="http://www.w3.org/2000/svg">
<g clip-path="url(#clip0_510_126965)">
<path d="M4.68369 12.2155L4.88289 12.3335C5.71988 12.8303 6.67949 13.093 7.65806 13.0935H7.66019C10.6655 13.0935 13.1114 10.6481 13.1126 7.64257C13.1131 6.18597 12.5465 4.8165 11.517 3.78611C10.4875 2.7559 9.11874 2.18816 7.66214 2.18755C4.65457 2.18755 2.20862 4.63258 2.20748 7.6381C2.20708 8.66802 2.49519 9.67109 3.04107 10.5389L3.17082 10.7451L2.61987 12.7566L4.68369 12.2155ZM1.04492 14.3146L1.97558 10.9164C1.40154 9.92179 1.09955 8.79356 1.10002 7.6378C1.10142 4.02187 4.04406 1.08008 7.66033 1.08008C9.4151 1.08083 11.0622 1.76378 12.3007 3.00339C13.5392 4.24298 14.221 5.89072 14.2204 7.64309C14.2189 11.2588 11.2756 14.2012 7.66033 14.2012C7.66006 14.2012 7.66046 14.2012 7.66033 14.2012H7.65752C6.55963 14.2008 5.48084 13.9254 4.52269 13.4028L1.04492 14.3146Z" fill="#056BE9"/>
<path d="M1.10002 7.63996C1.09963 8.7957 1.40161 9.92407 1.97565 10.9185L1.04492 14.3166L4.52258 13.4048C5.48079 13.9273 6.55952 14.2027 7.65741 14.2031H7.66022C11.2755 14.2031 14.2188 11.2608 14.2203 7.64504C14.2209 5.89258 13.5391 4.24488 12.3006 3.00534C11.062 1.76581 9.41502 1.08279 7.66022 1.08203C4.04414 1.08203 1.10143 4.02382 1.09991 7.63975M3.17089 10.7472L3.04108 10.541C2.49519 9.67312 2.20709 8.67007 2.20748 7.64024C2.20868 4.63491 4.65457 2.18969 7.66214 2.18969C9.1186 2.19026 10.4874 2.75806 11.5171 3.78825C12.5466 4.81851 13.1131 6.18809 13.1127 7.64452C13.1113 10.65 10.6654 13.0954 7.66008 13.0954H7.65795C6.67939 13.0949 5.71971 12.8322 4.88278 12.3356L4.68358 12.2175L2.61979 12.7586L3.17089 10.7472ZM7.66022 14.2031C7.66008 14.2031 7.66015 14.2031 7.66022 14.2031V14.2031Z" fill="#056BE9"/>
<path fill-rule="evenodd" clip-rule="evenodd" d="M6.01996 4.89643C5.89715 4.62345 5.76793 4.61798 5.65113 4.61318C5.55554 4.60911 5.44621 4.60938 5.337 4.60938C5.22767 4.60938 5.05009 4.6504 4.89993 4.81444C4.74963 4.97847 4.32617 5.375 4.32617 6.18144C4.32617 6.98796 4.91362 7.76725 4.99546 7.87672C5.07744 7.98599 6.12945 9.69389 7.7954 10.3509C9.18007 10.8969 9.46184 10.7883 9.76237 10.7609C10.0629 10.7336 10.7322 10.3645 10.8687 9.98177C11.0054 9.59906 11.0054 9.271 10.9644 9.20249C10.9234 9.13417 10.8141 9.09315 10.6502 9.01123C10.4862 8.92925 9.68038 8.53266 9.53016 8.47796C9.37987 8.42332 9.27059 8.39604 9.16125 8.56014C9.05198 8.72405 8.73806 9.09315 8.64239 9.20249C8.5468 9.31202 8.45114 9.3257 8.28723 9.24371C8.12326 9.16146 7.59533 8.98854 6.96907 8.4302C6.48177 7.99572 6.15281 7.45918 6.05715 7.29506C5.96156 7.13116 6.04695 7.04237 6.12913 6.96064C6.20278 6.8872 6.2931 6.76926 6.37509 6.67359C6.45687 6.57787 6.48416 6.50955 6.53879 6.40021C6.59349 6.29081 6.56614 6.19508 6.52518 6.11309C6.48416 6.0311 6.16571 5.22056 6.01996 4.89643Z" fill="#056BE9"/>
</g>
<defs>
<clipPath id="clip0_510_126965">
<rect width="13.5" height="13.807" fill="white" transform="translate(0.798828 0.800781)"/>
</clipPath>
</defs>
</svg>
