<svg width="18" height="18" viewBox="0 0 18 18" fill="none" xmlns="http://www.w3.org/2000/svg">
<path d="M9.50924 1.80078C7.51934 1.80078 5.90625 3.41392 5.90625 5.40377C5.90625 7.39366 7.51934 9.00691 9.50924 9.00691C11.4991 9.00691 13.1122 7.39366 13.1122 5.40377C13.1122 3.41392 11.4991 1.80078 9.50924 1.80078ZM9.50924 6.89326C8.68668 6.89326 8.01984 6.22637 8.01984 5.40382C8.01984 4.58126 8.68668 3.91442 9.50924 3.91442C10.3318 3.91442 10.9986 4.58126 10.9986 5.40382C10.9986 6.22637 10.3318 6.89326 9.50924 6.89326Z" fill="#056BE9"/>
<path d="M10.7791 11.8748C12.2215 11.5809 13.0859 10.8979 13.1316 10.8612C13.5537 10.5227 13.6215 9.90614 13.283 9.48401C12.9446 9.06193 12.328 8.99413 11.9059 9.33257C11.8969 9.33979 10.975 10.047 9.45816 10.048C7.94133 10.047 6.99993 9.33979 6.99101 9.33257C6.56883 8.99413 5.95231 9.06193 5.61386 9.48401C5.27537 9.90614 5.34317 10.5227 5.76525 10.8612C5.8116 10.8984 6.71165 11.5993 8.1945 11.8862L6.12788 14.046C5.75231 14.4355 5.7636 15.0556 6.15309 15.4312C6.3432 15.6145 6.58821 15.7056 6.83303 15.7056C7.0897 15.7056 7.34611 15.6053 7.53833 15.406L9.45821 13.3608L11.572 15.4192C11.955 15.8016 12.5752 15.801 12.9575 15.4181C13.3397 15.0352 13.3393 14.415 12.9564 14.0327L10.7791 11.8748Z" fill="#056BE9"/>
</svg>
