<svg width="18" height="18" viewBox="0 0 18 18" fill="none" xmlns="http://www.w3.org/2000/svg">
<path d="M10.2246 10.8914L10.9364 8.23513C11.3294 6.7681 10.4588 5.26017 8.99182 4.86708C7.52478 4.47399 6.01686 5.34459 5.62377 6.81162L3.84439 13.4524C3.4513 14.9194 4.3219 16.4273 5.78893 16.8204C6.4626 17.0009 7.14489 16.915 7.72389 16.6271C8.07922 16.4505 8.39565 16.1978 8.64731 15.8841M8.28006 7.52338L7.56831 10.1797C7.17522 11.6467 8.04582 13.1546 9.51285 13.5477C10.9799 13.9408 12.4878 13.0702 12.8809 11.6032L14.6603 4.96244C15.0534 3.4954 14.1828 1.98748 12.7157 1.59439C12.0421 1.41388 11.3598 1.49984 10.7808 1.78767C10.4254 1.9643 10.109 2.21696 9.85736 2.53072" stroke="#056BE9" stroke-width="1.44" stroke-linecap="round"/>
</svg>
