<svg width="14" height="14" viewBox="0 0 14 14" fill="none" xmlns="http://www.w3.org/2000/svg">
<path d="M5.06724 8.83594L4.80153 11.6599C4.80153 11.6599 4.69031 12.5251 5.55539 11.6599C6.42048 10.7946 7.24852 10.1273 7.24852 10.1273" fill="#056BE9"/>
<path d="M3.254 7.99157L0.406744 7.06387C0.406744 7.06387 0.0664653 6.92582 0.176035 6.61276C0.198591 6.54821 0.244091 6.49328 0.380202 6.39887C1.01108 5.95914 12.0572 1.98887 12.0572 1.98887C12.0572 1.98887 12.3691 1.88378 12.553 1.95368C12.5985 1.96776 12.6395 1.99369 12.6717 2.02879C12.7039 2.06389 12.7262 2.10692 12.7363 2.15347C12.7562 2.23569 12.7645 2.32028 12.761 2.40479C12.7601 2.4779 12.7513 2.54566 12.7446 2.65193C12.6773 3.73741 10.664 11.8387 10.664 11.8387C10.664 11.8387 10.5435 12.3128 10.112 12.329C10.0059 12.3325 9.90025 12.3145 9.80129 12.2762C9.70232 12.2379 9.61208 12.1801 9.53593 12.1062C8.68903 11.3777 5.76185 9.41053 5.11503 8.97789C5.10044 8.96795 5.08816 8.95499 5.079 8.9399C5.06984 8.9248 5.06403 8.90792 5.06195 8.89039C5.05291 8.84479 5.10249 8.78831 5.10249 8.78831C5.10249 8.78831 10.1995 4.25775 10.3351 3.78214C10.3456 3.74529 10.3059 3.72711 10.2527 3.74325C9.91413 3.86779 4.04559 7.5738 3.39789 7.98282C3.35127 7.99692 3.30199 7.99992 3.254 7.99157Z" fill="#056BE9"/>
</svg>
