<svg width="18" height="16" viewBox="0 0 18 16" fill="none" xmlns="http://www.w3.org/2000/svg">
<path d="M16.316 9.56282L16.9252 10.0002L16.316 9.56282ZM16.316 6.43848L15.7067 6.87587L16.316 6.43848ZM17.0524 8.00065H16.3024H17.0524ZM1.68373 9.56282L2.29299 9.12543L1.68373 9.56282ZM1.68373 6.43848L1.07447 6.0011L1.68373 6.43848ZM0.947266 8.00065H0.197266H0.947266ZM1.07448 10.0002C1.80122 11.0125 2.88521 12.3465 4.21376 13.4343C5.53372 14.515 7.17445 15.4173 8.99984 15.4173V13.9173C7.66963 13.9173 6.35958 13.2526 5.16403 12.2737C3.97706 11.3018 2.9808 10.0835 2.29299 9.12543L1.07448 10.0002ZM8.99984 15.4173C10.8252 15.4173 12.466 14.515 13.7859 13.4343C15.1145 12.3465 16.1985 11.0125 16.9252 10.0002L15.7067 9.12543C15.0189 10.0835 14.0226 11.3018 12.8357 12.2737C11.6401 13.2526 10.3301 13.9173 8.99984 13.9173V15.4173ZM16.9252 6.0011C16.1985 4.98878 15.1145 3.65481 13.7859 2.56703C12.466 1.48627 10.8252 0.583984 8.99984 0.583984V2.08398C10.3301 2.08398 11.6401 2.74874 12.8357 3.72763C14.0226 4.69949 15.0189 5.91778 15.7067 6.87587L16.9252 6.0011ZM8.99984 0.583984C7.17445 0.583984 5.53372 1.48627 4.21376 2.56703C2.88521 3.65481 1.80122 4.98878 1.07447 6.0011L2.29299 6.87587C2.9808 5.91778 3.97706 4.69949 5.16403 3.72763C6.35958 2.74874 7.66963 2.08398 8.99984 2.08398V0.583984ZM16.9252 10.0002C17.3814 9.36476 17.8024 8.822 17.8024 8.00065H16.3024C16.3024 8.25191 16.2325 8.39306 15.7067 9.12543L16.9252 10.0002ZM15.7067 6.87587C16.2325 7.60824 16.3024 7.74939 16.3024 8.00065H17.8024C17.8024 7.17931 17.3814 6.63654 16.9252 6.0011L15.7067 6.87587ZM2.29299 9.12543C1.76722 8.39306 1.69727 8.25191 1.69727 8.00065H0.197266C0.197266 8.822 0.618288 9.36476 1.07448 10.0002L2.29299 9.12543ZM1.07447 6.0011C0.618288 6.63655 0.197266 7.17931 0.197266 8.00065H1.69727C1.69727 7.74939 1.76722 7.60824 2.29299 6.87587L1.07447 6.0011ZM5.74984 8.00065C5.74984 9.79558 7.20492 11.2507 8.99984 11.2507V9.75065C8.03334 9.75065 7.24984 8.96715 7.24984 8.00065H5.74984ZM8.99984 11.2507C10.7948 11.2507 12.2498 9.79558 12.2498 8.00065H10.7498C10.7498 8.96715 9.96634 9.75065 8.99984 9.75065V11.2507ZM12.2498 8.00065C12.2498 6.20573 10.7948 4.75065 8.99984 4.75065V6.25065C9.96634 6.25065 10.7498 7.03415 10.7498 8.00065H12.2498ZM8.99984 4.75065C7.20492 4.75065 5.74984 6.20573 5.74984 8.00065H7.24984C7.24984 7.03415 8.03334 6.25065 8.99984 6.25065V4.75065Z" fill="#1A1A1A"/>
</svg>
