<svg width="16" height="16" viewBox="0 0 16 16" fill="none" xmlns="http://www.w3.org/2000/svg">
<path d="M5.31667 3.33268C5.31667 2.9737 5.02565 2.68268 4.66667 2.68268C4.30768 2.68268 4.01667 2.9737 4.01667 3.33268L5.31667 3.33268ZM4.66667 11.9993H5.31667H4.66667ZM2.50933 9.59551C2.28629 9.31422 1.87745 9.26699 1.59616 9.49002C1.31487 9.71306 1.26764 10.1219 1.49067 10.4032L2.50933 9.59551ZM2.9319 11.1747L2.42257 11.5785L2.9319 11.1747ZM6.40144 11.1747L5.89211 10.7708L6.40144 11.1747ZM7.84266 10.4032C8.06569 10.1219 8.01847 9.71306 7.73717 9.49002C7.45588 9.26699 7.04704 9.31422 6.82401 9.59551L7.84266 10.4032ZM4.49956 12.6528L4.39728 13.2947H4.39728L4.49956 12.6528ZM4.83378 12.6528L4.93605 13.2947H4.93605L4.83378 12.6528ZM10.6833 11.9993C10.6833 12.3583 10.9743 12.6493 11.3333 12.6493C11.6923 12.6493 11.9833 12.3583 11.9833 11.9993H10.6833ZM11.3333 3.33268H10.6833V3.33268L11.3333 3.33268ZM8.15734 4.92884C7.9343 5.21013 7.98153 5.61897 8.26282 5.84201C8.54412 6.06504 8.95296 6.01782 9.17599 5.73652L8.15734 4.92884ZM9.59856 4.15737L9.08924 3.75353L9.59856 4.15737ZM13.0681 4.15737L13.5774 3.75353L13.0681 4.15737ZM13.4907 5.73652C13.7137 6.01782 14.1225 6.06504 14.4038 5.84201C14.6851 5.61897 14.7324 5.21014 14.5093 4.92884L13.4907 5.73652ZM11.1662 2.67928L11.064 2.03737L11.0639 2.03737L11.1662 2.67928ZM11.5004 2.67928L11.6027 2.03737L11.6027 2.03737L11.5004 2.67928ZM4.01667 3.33268L4.01667 11.9993H5.31667L5.31667 3.33268L4.01667 3.33268ZM1.49067 10.4032L2.42257 11.5785L3.44122 10.7708L2.50933 9.59551L1.49067 10.4032ZM6.91076 11.5785L7.84266 10.4032L6.82401 9.59551L5.89211 10.7708L6.91076 11.5785ZM2.42257 11.5785C2.78429 12.0347 3.08946 12.4212 3.36407 12.6969C3.64158 12.9754 3.96847 13.2263 4.39728 13.2947L4.60183 12.0109C4.57774 12.007 4.49239 11.9875 4.28508 11.7794C4.07488 11.5684 3.82267 11.2519 3.44122 10.7708L2.42257 11.5785ZM5.89211 10.7708C5.51066 11.2519 5.25845 11.5684 5.04825 11.7794C4.84095 11.9875 4.7556 12.007 4.7315 12.0109L4.93605 13.2947C5.36486 13.2263 5.69175 12.9754 5.96926 12.6969C6.24387 12.4212 6.54904 12.0347 6.91076 11.5785L5.89211 10.7708ZM11.9833 11.9993V3.33268L10.6833 3.33268L10.6833 11.9993H11.9833ZM9.17599 5.73652L10.1079 4.56121L9.08924 3.75353L8.15734 4.92884L9.17599 5.73652ZM12.5588 4.56121L13.4907 5.73652L14.5093 4.92884L13.5774 3.75353L12.5588 4.56121ZM10.1079 4.56121C10.4893 4.08012 10.7415 3.76364 10.9517 3.55263C11.1591 3.34453 11.2444 3.32502 11.2685 3.32118L11.0639 2.03737C10.6351 2.10569 10.3082 2.35659 10.0307 2.63517C9.75613 2.91084 9.45096 3.29733 9.08924 3.75353L10.1079 4.56121ZM13.5774 3.75353C13.2157 3.29733 12.9105 2.91084 12.6359 2.63517C12.3584 2.35659 12.0315 2.10569 11.6027 2.03737L11.3982 3.32118C11.4223 3.32502 11.5076 3.34453 11.7149 3.55263C11.9251 3.76364 12.1773 4.08012 12.5588 4.56121L13.5774 3.75353ZM11.2685 3.32118C11.2903 3.31771 11.3119 3.31602 11.3333 3.31602V2.01602C11.2431 2.01602 11.1531 2.02316 11.064 2.03737L11.2685 3.32118ZM11.3333 3.31602C11.3548 3.31602 11.3764 3.31771 11.3982 3.32118L11.6027 2.03737C11.5135 2.02316 11.4235 2.01602 11.3333 2.01602V3.31602ZM11.9833 3.33268V2.66602H10.6833V3.33268H11.9833ZM4.39728 13.2947C4.48647 13.3089 4.57648 13.316 4.66667 13.316L4.66667 12.016C4.64523 12.016 4.62361 12.0143 4.60183 12.0109L4.39728 13.2947ZM4.66667 13.316C4.75686 13.316 4.84687 13.3089 4.93605 13.2947L4.73151 12.0109C4.70972 12.0143 4.6881 12.016 4.66667 12.016L4.66667 13.316ZM4.01667 11.9993V12.666H5.31667V11.9993H4.01667Z" fill="#1A1A1A"/>
</svg>
