<svg xmlns="http://www.w3.org/2000/svg" width="16" height="16" viewBox="0 0 16 16" fill="none">
  <path opacity="0.3" d="M7.28329 2.78729C7.57675 2.19275 8.42455 2.19275 8.71802 2.78729L9.8747 5.13059C9.99113 5.36647 10.2161 5.53004 10.4764 5.56808L13.0643 5.94634C13.7202 6.04222 13.9817 6.84849 13.5068 7.31102L11.6354 9.13372C11.4467 9.31752 11.3606 9.58242 11.4051 9.84205L11.8466 12.4161C11.9587 13.0697 11.2727 13.568 10.6857 13.2594L8.37301 12.0431C8.13991 11.9206 7.8614 11.9206 7.62829 12.0431L5.31556 13.2594C4.72865 13.568 4.04261 13.0697 4.15471 12.4161L4.59619 9.84205C4.64072 9.58242 4.55459 9.31752 4.36589 9.13372L2.49453 7.31102C2.01965 6.84849 2.28108 6.04222 2.93701 5.94635L5.52494 5.56808C5.78523 5.53004 6.01018 5.36647 6.12661 5.13059L7.28329 2.78729Z" stroke="#033B80" stroke-width="1.33333" stroke-linecap="round" stroke-linejoin="round"/>
</svg>