<svg width="16" height="16" viewBox="0 0 16 16" fill="none" xmlns="http://www.w3.org/2000/svg">
<path opacity="0.3" d="M7.28329 2.78729C7.57675 2.19275 8.42455 2.19275 8.71802 2.78729L9.8747 5.13059C9.99113 5.36647 10.2161 5.53004 10.4764 5.56808L13.0643 5.94634C13.7202 6.04222 13.9817 6.84849 13.5068 7.31102L11.6354 9.13372C11.4467 9.31752 11.3606 9.58242 11.4051 9.84205L11.8466 12.4161C11.9587 13.0697 11.2727 13.568 10.6857 13.2594L8.37301 12.0431C8.13991 11.9206 7.8614 11.9206 7.62829 12.0431L5.31556 13.2594C4.72865 13.568 4.04261 13.0697 4.15471 12.4161L4.59619 9.84205C4.64072 9.58242 4.55459 9.31752 4.36589 9.13372L2.49453 7.31102C2.01965 6.84849 2.28108 6.04222 2.93701 5.94635L5.52494 5.56808C5.78523 5.53004 6.01018 5.36647 6.12661 5.13059L7.28329 2.78729Z" stroke="#033B80" stroke-width="1.33333" stroke-linecap="round" stroke-linejoin="round"/>
<g clip-path="url(#clip0_510_126538)">
<path d="M7.28133 2.78729C7.5748 2.19275 8.4226 2.19275 8.71606 2.78729L9.87274 5.13059C9.98917 5.36647 10.2141 5.53004 10.4744 5.56808L13.0623 5.94634C13.7183 6.04222 13.9797 6.84849 13.5048 7.31102L11.6335 9.13372C11.4448 9.31752 11.3586 9.58242 11.4032 9.84205L11.8446 12.4161C11.9567 13.0697 11.2707 13.568 10.6838 13.2594L8.37106 12.0431C8.13795 11.9206 7.85944 11.9206 7.62634 12.0431L5.3136 13.2594C4.7267 13.568 4.04066 13.0697 4.15276 12.4161L4.59423 9.84205C4.63876 9.58242 4.55263 9.31752 4.36393 9.13372L2.49257 7.31102C2.0177 6.84849 2.27913 6.04222 2.93506 5.94635L5.52299 5.56808C5.78327 5.53004 6.00822 5.36647 6.12466 5.13059L7.28133 2.78729Z" fill="#056BE9" stroke="#056BE9" stroke-width="1.33333" stroke-linecap="round" stroke-linejoin="round"/>
</g>
<defs>
<clipPath id="clip0_510_126538">
<rect width="7" height="13" fill="white" transform="translate(1 1)"/>
</clipPath>
</defs>
</svg>
