<svg xmlns="http://www.w3.org/2000/svg" width="17" height="18" viewBox="0 0 17 18" fill="none">
  <g clip-path="url(#clip0_6407_41001)">
    <path d="M14.4088 2.21001C13.9895 1.82316 12.2953 0.593272 8.52159 0.576563C8.52159 0.576563 4.07139 0.308204 1.90199 2.29811C0.694376 3.50598 0.269559 5.27335 0.224748 7.46452C0.179937 9.65569 0.121961 13.7621 4.08025 14.8755H4.08405L4.08152 16.5745C4.08152 16.5745 4.0562 17.2624 4.50912 17.4027C5.05698 17.5728 5.3785 17.05 5.90155 16.4864C6.18864 16.1771 6.5851 15.7226 6.88384 15.3753C9.59097 15.6031 11.673 15.0824 11.9095 15.0054C12.4561 14.8282 15.549 14.432 16.0521 10.3258C16.5713 6.09361 15.8009 3.41661 14.4088 2.21001ZM14.8675 10.0223C14.4429 13.4507 11.9343 13.6661 11.4718 13.8145C11.2751 13.8778 9.44641 14.3327 7.14688 14.1826C7.14688 14.1826 5.43344 16.2497 4.89824 16.7872C4.81469 16.8713 4.71646 16.9052 4.65089 16.8885C4.55874 16.8659 4.53342 16.7568 4.53444 16.5973C4.53596 16.3695 4.54912 13.774 4.54912 13.774C1.20071 12.8444 1.39591 9.34936 1.43388 7.5192C1.47186 5.68905 1.81566 4.18978 2.83694 3.18141C4.67191 1.51936 8.45197 1.76772 8.45197 1.76772C11.6442 1.78164 13.1738 2.74293 13.5285 3.06496C14.7062 4.07333 15.3063 6.48628 14.8675 10.0213V10.0223Z" fill="#1A1A1A"/>
    <path d="M10.0762 7.36954C10.0347 6.53256 9.60957 6.09298 8.80078 6.05078" stroke="#1A1A1A" stroke-width="0.426842" stroke-linecap="round" stroke-linejoin="round"/>
    <path d="M11.1708 7.73548C11.1877 6.95572 10.9567 6.30423 10.4779 5.78102C9.99684 5.25595 9.33101 4.96683 8.47656 4.9043" stroke="#1A1A1A" stroke-width="0.426842" stroke-linecap="round" stroke-linejoin="round"/>
    <path d="M12.2891 8.17365C12.2788 6.82055 11.8745 5.75488 11.0762 4.97664C10.2779 4.1984 9.28502 3.80515 8.09766 3.79688" stroke="#1A1A1A" stroke-width="0.426842" stroke-linecap="round" stroke-linejoin="round"/>
    <path d="M8.84279 10.2272C8.84279 10.2272 9.1428 10.2525 9.30432 10.0535L9.61926 9.65731C9.77116 9.46085 10.1377 9.33553 10.4967 9.53554C10.7658 9.68896 11.0269 9.85576 11.2793 10.0353C11.5175 10.2105 12.0054 10.6176 12.0069 10.6176C12.2393 10.8138 12.293 11.1019 12.1347 11.4057C12.1347 11.4075 12.1335 11.4105 12.1335 11.412C11.9592 11.7141 11.738 11.9866 11.478 12.2191C11.475 12.2206 11.475 12.2222 11.4722 12.2237C11.2464 12.4124 11.0245 12.5196 10.8066 12.5455C10.7745 12.5511 10.7419 12.5531 10.7094 12.5515C10.6133 12.5525 10.5177 12.5378 10.4264 12.508L10.4193 12.4976C10.0836 12.4029 9.52306 12.166 8.58962 11.651C8.04946 11.3565 7.53521 11.0168 7.05238 10.6356C6.81038 10.4446 6.57953 10.2398 6.36098 10.0224L6.33769 9.99909L6.3144 9.9758L6.29111 9.95225C6.28326 9.94466 6.27566 9.93681 6.26781 9.92896C6.05037 9.71041 5.84564 9.47957 5.65464 9.23756C5.27342 8.75478 4.93372 8.24062 4.63918 7.70057C4.12424 6.76689 3.88727 6.20688 3.79259 5.87067L3.78221 5.86358C3.75253 5.7722 3.7379 5.67661 3.73891 5.58054C3.73714 5.54802 3.7391 5.5154 3.74474 5.48332C3.77191 5.26593 3.87934 5.04399 4.06702 4.81749C4.06854 4.8147 4.07006 4.8147 4.07158 4.81167C4.30406 4.55174 4.57652 4.33056 4.87868 4.15647C4.8802 4.15647 4.88324 4.15495 4.88501 4.15495C5.18881 3.99672 5.47692 4.05039 5.67287 4.28153C5.67439 4.28305 6.08072 4.77091 6.25516 5.00914C6.43471 5.26173 6.60151 5.52316 6.75491 5.79244C6.95491 6.15118 6.8296 6.51853 6.63314 6.66992L6.23693 6.98486C6.03693 7.14639 6.06325 7.44639 6.06325 7.44639C6.06325 7.44639 6.6501 9.66744 8.84279 10.2272Z" fill="#1A1A1A"/>
  </g>
  <defs>
    <clipPath id="clip0_6407_41001">
      <rect width="16" height="16.8719" fill="white" transform="translate(0.214844 0.564453)"/>
    </clipPath>
  </defs>
</svg>