<svg xmlns="http://www.w3.org/2000/svg" width="15" height="16" viewBox="0 0 15 16" fill="none">
  <g clip-path="url(#clip0_6407_41009)">
    <path d="M5.42652 9.88867L5.15322 12.7933C5.15322 12.7933 5.03882 13.6833 5.92862 12.7933C6.81842 11.9033 7.67012 11.217 7.67012 11.217" fill="#1A1A1A"/>
    <path d="M3.56326 9.02023L0.634659 8.06603C0.634659 8.06603 0.284659 7.92403 0.397359 7.60203C0.420559 7.53563 0.467359 7.47913 0.607359 7.38203C1.25626 6.92973 12.618 2.84603 12.618 2.84603C12.618 2.84603 12.9388 2.73793 13.128 2.80983C13.1748 2.82432 13.2169 2.85098 13.25 2.88709C13.2831 2.9232 13.3061 2.96745 13.3165 3.01533C13.3369 3.0999 13.3455 3.1869 13.3419 3.27383C13.341 3.34903 13.3319 3.41873 13.325 3.52803C13.2558 4.64453 11.185 12.9773 11.185 12.9773C11.185 12.9773 11.0611 13.4649 10.6172 13.4816C10.5081 13.4852 10.3994 13.4667 10.2976 13.4273C10.1958 13.3879 10.103 13.3285 10.0247 13.2524C9.15356 12.5031 6.14276 10.4797 5.47746 10.0347C5.46245 10.0245 5.44981 10.0112 5.4404 9.99566C5.43098 9.98013 5.425 9.96277 5.42286 9.94473C5.41356 9.89783 5.46456 9.83973 5.46456 9.83973C5.46456 9.83973 10.7072 5.17973 10.8467 4.69053C10.8575 4.65263 10.8167 4.63393 10.7619 4.65053C10.4137 4.77863 4.37746 8.59053 3.71126 9.01123C3.6633 9.02574 3.61262 9.02882 3.56326 9.02023Z" fill="#1A1A1A"/>
  </g>
  <defs>
    <clipPath id="clip0_6407_41009">
      <rect width="14.4" height="14.4" fill="white" transform="translate(0.214844 0.800781)"/>
    </clipPath>
  </defs>
</svg>