<svg xmlns="http://www.w3.org/2000/svg" width="15" height="16" viewBox="0 0 15 16" fill="none">
  <g clip-path="url(#clip0_6407_40994)">
    <path d="M4.18568 12.7055L4.39343 12.8286C5.26637 13.3467 6.26719 13.6207 7.28779 13.6212H7.29002C10.4244 13.6212 12.9754 11.0708 12.9766 7.93616C12.9771 6.417 12.3862 4.98871 11.3125 3.91406C10.2388 2.8396 8.81122 2.24747 7.29205 2.24684C4.15531 2.24684 1.6043 4.79689 1.60312 7.93151C1.6027 9.00566 1.90318 10.0518 2.47251 10.9569L2.60783 11.172L2.03322 13.2698L4.18568 12.7055ZM0.390625 14.8948L1.36125 11.3506C0.762558 10.3133 0.447601 9.13659 0.448094 7.93119C0.449554 4.15995 3.51857 1.0918 7.29016 1.0918C9.1203 1.09259 10.8381 1.80486 12.1299 3.09772C13.4215 4.39056 14.1326 6.10907 14.132 7.93671C14.1304 11.7078 11.0608 14.7765 7.29016 14.7765C7.28988 14.7765 7.2903 14.7765 7.29016 14.7765H7.28724C6.14219 14.7761 5.01707 14.4889 4.01777 13.9438L0.390625 14.8948Z" fill="#1A1A1A"/>
    <path d="M0.448094 7.93335C0.44768 9.13874 0.762636 10.3156 1.36133 11.3528L0.390625 14.8968L4.01765 13.9458C5.01701 14.4908 6.14208 14.778 7.28712 14.7784H7.29005C11.0606 14.7784 14.1303 11.7097 14.1319 7.93866C14.1325 6.11093 13.4214 4.39245 12.1298 3.09967C10.8379 1.8069 9.12022 1.09454 7.29005 1.09375C3.51866 1.09375 0.449557 4.1619 0.447979 7.93314M2.6079 11.1741L2.47251 10.959C1.90319 10.0538 1.60271 9.00771 1.60312 7.93365C1.60436 4.79924 4.15531 2.24899 7.29205 2.24899C8.81106 2.24958 10.2387 2.84177 11.3125 3.9162C12.3863 4.99072 12.9771 6.41912 12.9767 7.93811C12.9753 11.0727 10.4243 13.6232 7.28991 13.6232H7.28768C6.2671 13.6226 5.2662 13.3486 4.39332 12.8306L4.18557 12.7075L2.03313 13.2718L2.6079 11.1741ZM7.29005 14.7784C7.28991 14.7784 7.28998 14.7784 7.29005 14.7784V14.7784Z" fill="#1A1A1A"/>
    <path fill-rule="evenodd" clip-rule="evenodd" d="M5.57513 5.07282C5.44705 4.78811 5.31228 4.78241 5.19046 4.7774C5.09076 4.77316 4.97673 4.77344 4.86284 4.77344C4.74881 4.77344 4.5636 4.81623 4.40699 4.98731C4.25024 5.15839 3.80859 5.57194 3.80859 6.41303C3.80859 7.25419 4.42127 8.06695 4.50663 8.18112C4.59213 8.29509 5.68932 10.0763 7.42682 10.7615C8.87097 11.331 9.16484 11.2178 9.47828 11.1892C9.79172 11.1608 10.4898 10.7758 10.6322 10.3766C10.7746 9.97744 10.7746 9.63529 10.7319 9.56383C10.6892 9.49259 10.5752 9.4498 10.4042 9.36437C10.2332 9.27886 9.39276 8.86524 9.23609 8.80819C9.07934 8.7512 8.96537 8.72275 8.85134 8.8939C8.73738 9.06484 8.40997 9.4498 8.3102 9.56384C8.2105 9.67808 8.11073 9.69234 7.93978 9.60683C7.76877 9.52105 7.21816 9.3407 6.565 8.75837C6.05677 8.30524 5.71369 7.74565 5.61392 7.57448C5.51422 7.40354 5.60327 7.31094 5.68899 7.2257C5.7658 7.1491 5.86 7.02609 5.94551 6.92632C6.03081 6.82648 6.05926 6.75523 6.11625 6.6412C6.1733 6.52709 6.14477 6.42725 6.10205 6.34174C6.05926 6.25623 5.72715 5.41087 5.57513 5.07282Z" fill="#1A1A1A"/>
  </g>
  <defs>
    <clipPath id="clip0_6407_40994">
      <rect width="14.0798" height="14.4" fill="white" transform="translate(0.136719 0.800781)"/>
    </clipPath>
  </defs>
</svg>