<svg width="198" height="38" viewBox="0 0 198 38" fill="none" xmlns="http://www.w3.org/2000/svg">
<mask id="mask0_2534_131619" style="mask-type:luminance" maskUnits="userSpaceOnUse" x="37" y="0" width="14" height="13">
<path d="M50.5151 0H37.8086V12.7062H50.5151V0Z" fill="white"/>
</mask>
<g mask="url(#mask0_2534_131619)">
<path d="M56.695 6.23438H44.1055V18.8204H56.695V6.23438Z" stroke="black" stroke-width="1.77185" stroke-miterlimit="10"/>
</g>
<mask id="mask1_2534_131619" style="mask-type:luminance" maskUnits="userSpaceOnUse" x="37" y="12" width="14" height="14">
<path d="M50.5151 12.7051H37.8086V25.4113H50.5151V12.7051Z" fill="white"/>
</mask>
<g mask="url(#mask1_2534_131619)">
<path d="M56.695 6.23242H44.1055V18.8184H56.695V6.23242Z" stroke="black" stroke-width="1.77185" stroke-miterlimit="10"/>
<path d="M44.1484 18.1992V27.6671" stroke="black" stroke-width="1.77185" stroke-miterlimit="10"/>
</g>
<mask id="mask2_2534_131619" style="mask-type:luminance" maskUnits="userSpaceOnUse" x="50" y="0" width="14" height="13">
<path d="M63.2221 0H50.5156V12.7062H63.2221V0Z" fill="white"/>
</mask>
<g mask="url(#mask2_2534_131619)">
<path d="M56.7455 12.5875C56.7455 16.0953 53.9002 18.9405 50.3923 18.9405C46.8844 18.9405 44.0391 16.0953 44.0391 12.5875C44.0391 9.07962 46.8844 6.23438 50.3923 6.23438C53.9002 6.23438 56.7455 9.07962 56.7455 12.5875Z" stroke="black" stroke-width="1.77185" stroke-miterlimit="10"/>
</g>
<mask id="mask3_2534_131619" style="mask-type:luminance" maskUnits="userSpaceOnUse" x="50" y="12" width="14" height="14">
<path d="M63.2221 12.7051H50.5156V25.4113H63.2221V12.7051Z" fill="white"/>
</mask>
<g mask="url(#mask3_2534_131619)">
<path d="M56.7455 12.4683C56.7455 15.9762 53.9002 18.8214 50.3923 18.8214C46.8844 18.8214 44.0391 15.9762 44.0391 12.4683C44.0391 8.96048 46.8844 6.11523 50.3923 6.11523C53.9002 6.11523 56.7455 8.96048 56.7455 12.4683Z" stroke="black" stroke-width="1.77185" stroke-miterlimit="10"/>
</g>
<path d="M72.0731 26.3732C72.7366 22.9278 70.4814 19.5969 67.0359 18.9334C63.5904 18.2699 60.2594 20.5251 59.5959 23.9705C58.9324 27.4159 61.1877 30.7468 64.6331 31.4103C68.0786 32.0738 71.4096 29.8186 72.0731 26.3732Z" stroke="black" stroke-width="1.77185" stroke-miterlimit="10"/>
<path d="M73.3431 17.9434H70.9688V32.4294H73.3431V17.9434Z" fill="black"/>
<path d="M45.3157 25.3203H42.9414V32.4204H45.3157V25.3203Z" fill="black"/>
<path d="M132.004 19.2559H131.484V19.8145H132.004V19.2559Z" fill="white"/>
<path d="M128.718 18.2076L116.109 30.8164L117.706 32.4126L130.315 19.8038L128.718 18.2076Z" fill="black"/>
<path d="M128.83 18.0977L128.203 18.7245V32.587H130.577V18.0977H128.83Z" fill="black"/>
<path d="M117.714 32.4278V18.0977H115.34V32.587H117.555L117.714 32.4278Z" fill="black"/>
<path d="M168.715 18.2076L156.105 30.8164L157.702 32.4126L170.311 19.8038L168.715 18.2076Z" fill="black"/>
<path d="M168.815 18.0938L168.324 18.5874V32.5831H170.699V18.0938H168.815Z" fill="black"/>
<path d="M157.835 32.2843V18.0938H155.461V32.5831H157.536L157.835 32.2843Z" fill="black"/>
<path d="M144.226 20.2246H141.852V32.5833H144.226V20.2246Z" fill="black"/>
<path d="M149.464 18.0938H136.758V20.3511H149.464V18.0938Z" fill="black"/>
<path d="M109.266 22.368C109.266 19.9905 107.33 18.0547 104.952 18.0547C104.852 18.0547 104.754 18.0612 104.653 18.0677L97.7416 18.0644H96.5625V32.5667H104.579C104.702 32.5765 104.826 32.583 104.949 32.583C107.327 32.583 109.262 30.6472 109.262 28.2697C109.262 27.1556 108.84 26.1097 108.096 25.3205C108.83 24.5377 109.262 23.4951 109.262 22.3713M104.949 30.2087V30.2022H98.9271V26.2591H103.929C103.929 26.2591 104.614 26.2494 105.02 26.2819C105.29 26.3014 105.589 26.4248 105.761 26.5027C105.829 26.532 105.949 26.6067 105.998 26.6391C106.554 26.9997 106.888 27.6071 106.888 28.2697C106.888 29.3382 106.018 30.2087 104.949 30.2087ZM106.287 23.7712C106.04 23.9596 105.858 23.992 105.647 24.0245C105.514 24.044 105.371 24.0537 105.245 24.0602H98.9271V20.429H101.097C101.097 20.429 101.097 20.4322 101.097 20.4355H104.871C104.897 20.4355 104.923 20.4322 104.949 20.4322C104.975 20.4322 105.001 20.4355 105.027 20.4355H105.209V20.4517C106.154 20.5784 106.888 21.3904 106.888 22.3713C106.888 22.9137 106.664 23.4139 106.287 23.7744" fill="black"/>
<path d="M190.988 23.6797H178.281V25.937H190.988V23.6797Z" fill="black"/>
<mask id="mask4_2534_131619" style="mask-type:luminance" maskUnits="userSpaceOnUse" x="184" y="25" width="13" height="13">
<path d="M196.812 25.168H184.105V37.8741H196.812V25.168Z" fill="white"/>
</mask>
<g mask="url(#mask4_2534_131619)">
<path d="M190.506 26.0754C191.068 22.612 188.716 19.3486 185.252 18.7865C181.789 18.2243 178.525 20.5762 177.963 24.0395C177.401 27.5029 179.753 30.7663 183.216 31.3285C186.68 31.8907 189.943 29.5388 190.506 26.0754Z" stroke="black" stroke-width="1.77185" stroke-miterlimit="10"/>
</g>
<mask id="mask5_2534_131619" style="mask-type:luminance" maskUnits="userSpaceOnUse" x="184" y="12" width="14" height="14">
<path d="M197.042 12.582H184.336V25.9346H197.042V12.582Z" fill="white"/>
</mask>
<g mask="url(#mask5_2534_131619)">
<path d="M184.218 32.7067C180.06 32.7067 176.676 29.3223 176.676 25.1649C176.676 21.0075 180.057 17.623 184.218 17.623C188.379 17.623 191.76 21.0042 191.76 25.1649C191.76 29.3256 188.379 32.7067 184.218 32.7067ZM184.218 20.0006C181.369 20.0006 179.053 22.3164 179.053 25.1649C179.053 28.0134 181.369 30.3292 184.218 30.3292C187.066 30.3292 189.382 28.0101 189.382 25.1649C189.382 22.3196 187.066 20.0006 184.218 20.0006Z" fill="black"/>
</g>
<mask id="mask6_2534_131619" style="mask-type:luminance" maskUnits="userSpaceOnUse" x="171" y="25" width="14" height="13">
<path d="M184.097 25.8438H171.391V37.6372H184.097V25.8438Z" fill="white"/>
</mask>
<g mask="url(#mask6_2534_131619)">
<path d="M184.214 32.5896C180.056 32.5896 176.672 29.2052 176.672 25.0477C176.672 20.8903 180.053 17.5059 184.214 17.5059C188.375 17.5059 191.756 20.887 191.756 25.0477C191.756 29.2084 188.375 32.5896 184.214 32.5896ZM184.214 19.8834C181.365 19.8834 179.049 22.2025 179.049 25.0477C179.049 27.893 181.365 30.212 184.214 30.212C187.062 30.212 189.378 27.893 189.378 25.0477C189.378 22.2025 187.062 19.8834 184.214 19.8834Z" fill="black"/>
</g>
<mask id="mask7_2534_131619" style="mask-type:luminance" maskUnits="userSpaceOnUse" x="171" y="12" width="14" height="14">
<path d="M184.335 12.3438H171.629V25.9431H184.335V12.3438Z" fill="white"/>
</mask>
<g mask="url(#mask7_2534_131619)">
<path d="M188.716 29.6603C191.197 27.1792 191.197 23.1567 188.716 20.6757C186.234 18.1946 182.212 18.1946 179.731 20.6757C177.25 23.1567 177.25 27.1792 179.731 29.6603C182.212 32.1413 186.234 32.1413 188.716 29.6603Z" stroke="black" stroke-width="1.77185" stroke-miterlimit="10"/>
</g>
<path d="M192.86 25.9434H187.445V28.2007H192.86V25.9434Z" fill="white"/>
<path d="M90.6007 22.2041C90.6007 20.5736 89.688 19.151 88.3498 18.417C87.3494 17.9525 86.3003 17.6699 85.1927 17.6699C84.5008 17.6699 83.8155 17.7674 83.1561 17.9492C81.4736 18.2318 80.1192 19.4953 79.6969 21.129H82.2629C82.2986 21.0771 82.3376 21.0284 82.3766 20.9796C82.7274 20.4275 83.7927 20.028 85.0562 20.028C85.4688 20.028 85.8618 20.0734 86.2158 20.1481C86.2385 20.1546 86.2613 20.1579 86.284 20.1611C86.5406 20.2261 86.7745 20.3008 86.9824 20.395C87.7067 20.6743 88.2231 21.3791 88.2231 22.2009C88.2231 22.6978 88.0347 23.1493 87.7294 23.4903C87.7294 23.4903 87.554 23.6268 87.3559 23.7209C87.1512 23.8151 86.9076 23.8801 86.6738 23.9061C86.4886 23.9256 86.323 23.9223 86.2613 23.9223H83.1009V26.118H86.284C86.4139 26.1277 86.6381 26.1569 86.8914 26.2511C87.0181 26.2999 87.1285 26.3551 87.226 26.4135C87.3137 26.4623 87.3981 26.5207 87.4793 26.5824C87.5313 26.6214 87.5605 26.6474 87.5605 26.6474C87.9665 27.0047 88.2231 27.5244 88.2231 28.1025C88.2231 28.7488 87.9048 29.3205 87.4176 29.6713C87.0311 29.9733 86.4204 30.204 85.6961 30.3079C85.4298 30.3501 85.1602 30.3761 84.8873 30.3761C84.8256 30.3761 84.7639 30.3696 84.7022 30.3696C83.2113 30.3436 81.9933 29.8109 81.7887 29.1191H79.2422C79.4403 29.9246 79.8658 30.6457 80.4472 31.2011L80.47 31.2238C81.7757 32.195 83.2568 32.7504 84.8873 32.7504C86.1963 32.7504 87.4858 32.4093 88.6161 31.763L88.5999 31.7338C89.7984 30.9672 90.5942 29.6258 90.5942 28.0992C90.5942 26.9592 90.1492 25.9198 89.4249 25.1501C90.1492 24.377 90.5942 23.3409 90.5942 22.2009" fill="black"/>
<g clip-path="url(#clip0_2534_131619)">
<mask id="mask8_2534_131619" style="mask-type:luminance" maskUnits="userSpaceOnUse" x="-125" y="-54" width="279" height="155">
<path d="M153.155 -53.707H-124.363V100.272H153.155V-53.707Z" fill="white"/>
</mask>
<g mask="url(#mask8_2534_131619)">
<path d="M14.2734 31.4263C14.4454 31.4334 14.6174 31.4391 14.7923 31.4391C21.4976 31.4391 26.9424 26.1382 27.0653 19.5527" stroke="#EC9605" stroke-width="1.74611" stroke-miterlimit="10"/>
<path d="M2.16797 19.5527C2.28938 26.0812 7.64462 31.345 14.2704 31.4348" stroke="#F60504" stroke-width="1.74611" stroke-miterlimit="10"/>
<path d="M27.0281 19.4988V7.27734H14.5195" stroke="#056BE9" stroke-width="1.74611" stroke-miterlimit="10"/>
<path d="M14.5555 7.26953H2.16406V19.6078" stroke="black" stroke-width="1.74611" stroke-miterlimit="10"/>
</g>
</g>
<defs>
<clipPath id="clip0_2534_131619">
<rect width="28.779" height="27.5271" fill="white" transform="translate(0 5.64648)"/>
</clipPath>
</defs>
</svg>
